<svg width="48" height="48" viewBox="0 0 48 48" fill="none" xmlns="http://www.w3.org/2000/svg">
<rect width="48" height="48" rx="24" fill="#E1325C"/>
<path d="M24.9428 13.8905C24.6928 13.6405 24.3536 13.5 24 13.5C23.6464 13.5 23.3072 13.6405 23.0572 13.8905C22.8071 14.1406 22.6667 14.4797 22.6667 14.8333V22.6667H14.8333C14.4797 22.6667 14.1406 22.8071 13.8905 23.0572C13.6405 23.3072 13.5 23.6464 13.5 24C13.5 24.3536 13.6405 24.6928 13.8905 24.9428C14.1406 25.1929 14.4797 25.3333 14.8333 25.3333H22.6667V33.1667C22.6667 33.5203 22.8071 33.8594 23.0572 34.1095C23.3072 34.3595 23.6464 34.5 24 34.5C24.3536 34.5 24.6928 34.3595 24.9428 34.1095C25.1929 33.8594 25.3333 33.5203 25.3333 33.1667V25.3333H33.1667C33.5203 25.3333 33.8594 25.1929 34.1095 24.9428C34.3595 24.6928 34.5 24.3536 34.5 24C34.5 23.6464 34.3595 23.3072 34.1095 23.0572C33.8594 22.8071 33.5203 22.6667 33.1667 22.6667H25.3333V14.8333C25.3333 14.4797 25.1929 14.1406 24.9428 13.8905Z" fill="#F9F9F9" stroke="#F9F9F9"/>
</svg>
