<svg width="30" height="41" viewBox="0 0 30 41" fill="none" xmlns="http://www.w3.org/2000/svg">
<path d="M0.68125 38.152H7.23325V38.704H0.68125V38.152ZM3.60925 36.28H4.27325V38.304H3.60925V36.28ZM1.44125 32.992H6.43325V36.4H1.44125V32.992ZM5.79325 33.528H2.08925V35.864H5.79325V33.528ZM9.96063 32.944C11.0246 32.944 11.7766 33.928 11.7766 35.464C11.7766 37.008 11.0246 37.992 9.96063 37.992C8.89663 37.992 8.14463 37.008 8.14463 35.464C8.14463 33.928 8.89663 32.944 9.96063 32.944ZM9.96063 33.544C9.25663 33.544 8.77663 34.296 8.77663 35.464C8.77663 36.64 9.25663 37.408 9.96063 37.408C10.6566 37.408 11.1446 36.64 11.1446 35.464C11.1446 34.296 10.6566 33.544 9.96063 33.544ZM12.9286 32.392H13.6006V39.624H12.9286V32.392ZM13.4406 35.28H14.7846V35.84H13.4406V35.28ZM15.4 38.152H21.952V38.704H15.4V38.152ZM18.328 36.424H18.992V38.312H18.328V36.424ZM16.168 32.904H16.824V34.192H20.512V32.904H21.168V36.6H16.168V32.904ZM16.824 34.728V36.056H20.512V34.728H16.824ZM28.0234 32.392H28.6874V39.624H28.0234V32.392ZM25.9034 33.168H26.5594C26.5594 35.264 25.6154 37.096 23.1994 38.28L22.8474 37.744C24.9354 36.736 25.9034 35.2 25.9034 33.28V33.168ZM23.1754 33.168H26.1914V33.712H23.1754V33.168Z" fill="#969696"/>
<path d="M11 5.93884V24.751M19 1V20.0008M3 8.7496C3 6.74909 3 5.75019 3.524 5.1666C3.70945 4.95899 3.93506 4.79264 4.18667 4.678C4.896 4.35771 5.828 4.67393 7.692 5.30639C9.11467 5.78955 9.82533 6.03113 10.5453 6.00534C10.8095 5.99651 11.0721 5.96105 11.3293 5.89948C12.0293 5.72983 12.6533 5.30639 13.9013 4.46085L15.744 3.20952C17.344 2.12376 18.1427 1.58088 19.06 1.45738C19.9773 1.33116 20.8893 1.6406 22.712 2.25948L24.2653 2.78607C25.5853 3.23395 26.2453 3.45788 26.6227 3.99126C27 4.52464 27 5.2331 27 6.64866V17.6813C27 19.6805 27 20.6807 26.476 21.2643C26.2903 21.4709 26.0647 21.6364 25.8133 21.7502C25.104 22.0718 24.172 21.7556 22.308 21.1232C20.8853 20.64 20.1747 20.3984 19.4547 20.4242C19.1905 20.4331 18.9279 20.4685 18.6707 20.5301C17.9707 20.6997 17.3467 21.1232 16.0987 21.9687L14.256 23.22C12.656 24.3058 11.8573 24.8487 10.94 24.9722C10.0227 25.0984 9.11067 24.789 7.288 24.1701L5.73467 23.6435C4.41467 23.1956 3.75467 22.9717 3.37733 22.4383C3 21.9049 3 21.1951 3 19.7809V8.74824V8.7496Z" stroke="#969696" stroke-width="1.5"/>
</svg>
