<svg width="1140" height="352" viewBox="0 0 1140 352" fill="none" xmlns="http://www.w3.org/2000/svg">
<rect y="221" width="651" height="131" fill="#68290E"/>
<path fill-rule="evenodd" clip-rule="evenodd" d="M1140 0H0V352C0 279.098 59.0984 220 132 220H511.726C584.628 220 643.726 279.098 643.726 352H1140V0Z" fill="#D7B689"/>
<path d="M123.652 116.846H128.986V155.738H123.652V116.846ZM118.57 131.84H125.038V136.292H118.57V131.84ZM114.958 117.518H120.166V153.89H114.958V117.518ZM97.192 121.13H102.778V143.6H97.192V121.13ZM97.192 141.5H99.88C103.618 141.5 107.986 141.29 112.816 140.366L113.362 145.154C108.28 146.078 103.828 146.288 99.88 146.288H97.192V141.5ZM158.443 121.172H163.273V122.306C163.273 129.152 157.687 134.738 147.817 136.082L145.759 131.714C154.327 130.664 158.443 126.296 158.443 122.306V121.172ZM160.039 121.172H164.869V122.306C164.869 126.296 168.985 130.664 177.553 131.714L175.537 136.082C165.625 134.738 160.039 129.152 160.039 122.306V121.172ZM158.737 141.5H164.281V155.78H158.737V141.5ZM144.079 138.308H179.233V142.76H144.079V138.308ZM147.187 118.82H176.041V123.23H147.187V118.82ZM201.742 123.356H211.654V127.766H201.742V123.356ZM201.742 131.714H211.822V136.124H201.742V131.714ZM209.638 116.888H215.224V145.574H209.638V116.888ZM189.478 150.614H216.064V155.066H189.478V150.614ZM189.478 142.76H195.106V153.176H189.478V142.76ZM184.312 119.408H189.856V125.33H197.248V119.408H202.708V139.484H184.312V119.408ZM189.856 129.572V135.074H197.248V129.572H189.856ZM245.774 137.174H251.402V143.222H245.774V137.174ZM231.032 134.99H266.186V139.4H231.032V134.99ZM248.546 141.878C256.988 141.878 262.028 144.398 262.028 148.85C262.028 153.302 256.988 155.738 248.546 155.738C240.104 155.738 235.064 153.302 235.064 148.85C235.064 144.398 240.104 141.878 248.546 141.878ZM248.546 146.078C243.296 146.078 240.692 146.918 240.692 148.85C240.692 150.74 243.296 151.58 248.546 151.58C253.754 151.58 256.358 150.74 256.358 148.85C256.358 146.918 253.754 146.078 248.546 146.078ZM235.526 117.854H241.028V121.13H256.19V117.854H261.734V132.596H235.526V117.854ZM241.028 125.33V128.228H256.19V125.33H241.028ZM280.336 119.534C286.132 119.534 290.374 124.91 290.374 133.394C290.374 141.962 286.132 147.338 280.336 147.338C274.498 147.338 270.298 141.962 270.298 133.394C270.298 124.91 274.498 119.534 280.336 119.534ZM280.336 124.616C277.522 124.616 275.632 127.682 275.632 133.394C275.632 139.19 277.522 142.298 280.336 142.298C283.192 142.298 285.04 139.19 285.04 133.394C285.04 127.682 283.192 124.616 280.336 124.616ZM296.758 116.804H302.302V155.822H296.758V116.804ZM288.736 130.832H299.11V135.326H288.736V130.832ZM334.933 116.846H340.435V140.282H334.933V116.846ZM337.453 125.918H344.131V130.496H337.453V125.918ZM308.683 119.45H313.219V124.406H315.529V119.45H320.065V137.846H308.683V119.45ZM313.219 128.69V133.436H315.529V128.69H313.219ZM321.577 119.45H326.113V124.406H328.339V119.45H332.875V137.846H321.577V119.45ZM326.113 128.69V133.436H328.339V128.69H326.113ZM326.995 140.912C335.437 140.912 340.645 143.684 340.645 148.346C340.645 153.05 335.437 155.738 326.995 155.738C318.595 155.738 313.387 153.05 313.387 148.346C313.387 143.684 318.595 140.912 326.995 140.912ZM326.995 145.196C321.787 145.196 319.057 146.204 319.057 148.346C319.057 150.446 321.787 151.496 326.995 151.496C332.245 151.496 334.975 150.446 334.975 148.346C334.975 146.204 332.245 145.196 326.995 145.196ZM381.526 116.804H387.154V155.696H381.526V116.804ZM385.684 131.672H392.53V136.25H385.684V131.672ZM371.32 120.836H376.78C376.78 132.512 372.328 142.508 359.392 149.018L356.284 144.776C366.49 139.484 371.32 132.344 371.32 121.802V120.836ZM358.426 120.836H374.176V125.33H358.426V120.836ZM423.481 116.846H428.815V155.738H423.481V116.846ZM408.067 131.756H416.383V136.166H408.067V131.756ZM415.291 117.686H420.499V154.016H415.291V117.686ZM406.807 121.424H412.183C412.183 132.512 408.865 141.332 397.945 147.674L394.795 143.768C403.657 138.434 406.807 131.966 406.807 122.558V121.424ZM396.979 121.424H408.571V125.876H396.979V121.424ZM438.304 127.346H465.268V131.756H438.304V127.346ZM433.936 135.788H469.174V140.24H433.936V135.788ZM438.304 118.232H443.848V129.53H438.304V118.232ZM437.926 150.446H465.478V154.898H437.926V150.446ZM437.926 143.348H443.512V151.622H437.926V143.348ZM478.887 142.842V142.335C478.897 140.595 479.051 139.208 479.349 138.174C479.657 137.14 480.105 136.305 480.692 135.668C481.278 135.032 481.984 134.455 482.809 133.938C483.426 133.54 483.978 133.128 484.465 132.7C484.952 132.273 485.34 131.8 485.628 131.283C485.917 130.756 486.061 130.17 486.061 129.523C486.061 128.837 485.897 128.236 485.569 127.719C485.241 127.202 484.798 126.804 484.241 126.526C483.694 126.247 483.088 126.108 482.422 126.108C481.775 126.108 481.164 126.252 480.587 126.54C480.01 126.819 479.538 127.237 479.17 127.793C478.802 128.34 478.604 129.021 478.574 129.837H472.488C472.538 127.848 473.015 126.207 473.92 124.915C474.825 123.612 476.023 122.643 477.515 122.006C479.006 121.36 480.652 121.037 482.452 121.037C484.43 121.037 486.18 121.365 487.702 122.021C489.223 122.668 490.416 123.607 491.281 124.84C492.146 126.073 492.579 127.56 492.579 129.3C492.579 130.463 492.385 131.497 491.997 132.402C491.619 133.297 491.087 134.092 490.401 134.788C489.715 135.474 488.905 136.096 487.97 136.653C487.184 137.12 486.538 137.607 486.031 138.114C485.534 138.621 485.161 139.208 484.912 139.874C484.674 140.54 484.55 141.361 484.54 142.335V142.842H478.887ZM481.84 152.388C480.846 152.388 479.996 152.04 479.29 151.344C478.594 150.638 478.251 149.793 478.26 148.808C478.251 147.834 478.594 146.999 479.29 146.303C479.996 145.607 480.846 145.259 481.84 145.259C482.785 145.259 483.615 145.607 484.331 146.303C485.047 146.999 485.41 147.834 485.42 148.808C485.41 149.464 485.236 150.066 484.898 150.613C484.569 151.15 484.137 151.582 483.6 151.911C483.063 152.229 482.476 152.388 481.84 152.388Z" fill="white"/>
<path d="M112.9 80.536H116.652V106.548H112.9V80.536ZM102.68 82.356C106.6 82.356 109.484 85.94 109.484 91.596C109.484 97.308 106.6 100.892 102.68 100.892C98.76 100.892 95.876 97.308 95.876 91.596C95.876 85.94 98.76 82.356 102.68 82.356ZM102.68 85.744C100.748 85.744 99.432 87.788 99.432 91.596C99.432 95.46 100.748 97.532 102.68 97.532C104.612 97.532 105.9 95.46 105.9 91.596C105.9 87.788 104.612 85.744 102.68 85.744ZM133.142 87.452H139.806V90.42H133.142V87.452ZM138.854 80.592H142.578V99.716H138.854V80.592ZM125.414 103.076H143.138V106.044H125.414V103.076ZM125.414 97.84H129.166V104.784H125.414V97.84ZM121.97 82.272H125.666V86.22H130.594V82.272H134.234V95.656H121.97V82.272ZM125.666 89.048V92.716H130.594V89.048H125.666ZM162.608 83.252H166.276C166.276 91.064 163.476 97.672 154.768 102.04L152.836 99.128C159.696 95.572 162.608 90.868 162.608 83.924V83.252ZM154.068 83.252H164.568V86.192H154.068V83.252ZM171.092 80.564H174.816V106.492H171.092V80.564ZM165.268 87.2H171.624V90.14H165.268V87.2ZM164.988 94.284H171.372V97.252H164.988V94.284ZM188.702 92.912H192.426V96.524H188.702V92.912ZM190.606 80.816C196.514 80.816 199.986 82.356 199.986 85.212C199.986 88.068 196.514 89.636 190.606 89.636C184.67 89.636 181.226 88.068 181.226 85.212C181.226 82.356 184.67 80.816 190.606 80.816ZM190.606 83.532C186.854 83.532 185.09 84.064 185.09 85.212C185.09 86.416 186.854 86.92 190.606 86.92C194.358 86.92 196.122 86.416 196.122 85.212C196.122 84.064 194.358 83.532 190.606 83.532ZM178.874 90.756H202.31V93.696H178.874V90.756ZM181.562 95.376H199.482V102.04H185.258V104.336H181.59V99.464H195.814V98.148H181.562V95.376ZM181.59 103.524H200.154V106.324H181.59V103.524ZM215.048 87.592H218.996V90.588H215.048V87.592ZM210.652 82.44C214.068 82.44 216.588 85.128 216.588 88.992C216.588 92.828 214.068 95.544 210.652 95.544C207.208 95.544 204.716 92.828 204.716 88.992C204.716 85.128 207.208 82.44 210.652 82.44ZM210.652 85.632C209.14 85.632 208.048 86.864 208.048 88.992C208.048 91.12 209.14 92.352 210.652 92.352C212.136 92.352 213.256 91.12 213.256 88.992C213.256 86.864 212.136 85.632 210.652 85.632ZM223.196 80.564H226.724V99.856H223.196V80.564ZM218.072 80.984H221.544V99.072H218.072V80.984ZM209.28 103.076H227.396V106.044H209.28V103.076ZM209.28 97.392H213.004V104.644H209.28V97.392ZM254.678 80.564H258.43V93.668H254.678V80.564ZM241.126 94.816H258.43V101.844H244.822V104.448H241.182V99.156H254.734V97.644H241.126V94.816ZM241.182 103.44H259.074V106.324H241.182V103.44ZM242.946 81.152H246.026V83.112C246.026 87.9 243.618 92.24 238.55 93.78L236.758 90.84C241.098 89.524 242.946 86.276 242.946 83.112V81.152ZM243.702 81.152H246.754V83.112C246.754 86.192 248.574 89.216 252.802 90.42L251.01 93.304C246.026 91.848 243.702 87.788 243.702 83.112V81.152ZM276.208 87.732H281.22V90.728H276.208V87.732ZM280.604 80.564H284.328V98.036H280.604V80.564ZM273.744 96.076H276.908V96.692C276.908 101.452 273.436 105.316 267.08 106.38L265.652 103.468C271.14 102.628 273.744 99.632 273.744 96.692V96.076ZM274.276 96.076H277.44V96.692C277.44 99.604 280.016 102.6 285.532 103.44L284.048 106.38C277.72 105.316 274.276 101.452 274.276 96.692V96.076ZM272.372 82.272H276.236C276.236 89.552 273.016 94.424 264.476 97.168L262.992 94.284C270.132 92.044 272.372 88.516 272.372 83.784V82.272ZM264.364 82.272H274.78V85.24H264.364V82.272ZM272.82 87.256V89.804L263.58 90.476L263.048 87.592L272.82 87.256ZM298.898 97.112H316.566V106.52H312.842V100.024H298.898V97.112ZM312.842 80.564H316.566V95.908H312.842V80.564ZM307.55 86.752H313.766V89.748H307.55V86.752ZM295.93 82.44H308.194V94.508H295.93V82.44ZM304.526 85.38H299.598V91.596H304.526V85.38ZM326.448 84.652H329.388V87.564C329.388 93.416 326.924 99.38 322.164 101.62L320.064 98.68C324.348 96.664 326.448 91.82 326.448 87.564V84.652ZM327.232 84.652H330.172V87.564C330.172 91.484 332.188 96.076 336.444 98.036L334.4 100.976C329.64 98.764 327.232 93.08 327.232 87.564V84.652ZM321.072 83.056H335.296V86.108H321.072V83.056ZM337.2 80.564H340.952V106.492H337.2V80.564ZM340.112 90.448H344.704V93.528H340.112V90.448ZM352.013 83.6364L351.625 97.8949H347.986L347.588 83.6364H352.013ZM349.806 104.259C349.15 104.259 348.586 104.027 348.115 103.562C347.645 103.092 347.413 102.528 347.419 101.872C347.413 101.223 347.645 100.666 348.115 100.202C348.586 99.7377 349.15 99.5057 349.806 99.5057C350.435 99.5057 350.989 99.7377 351.466 100.202C351.944 100.666 352.185 101.223 352.192 101.872C352.185 102.31 352.069 102.711 351.844 103.075C351.625 103.433 351.337 103.722 350.979 103.94C350.621 104.152 350.23 104.259 349.806 104.259Z" fill="white"/>
<g filter="url(#filter0_d_2863_108)">
<ellipse cx="870.496" cy="179" rx="150.5" ry="150" fill="url(#paint0_linear_2863_108)" shape-rendering="crispEdges"/>
<path d="M1018.5 179C1018.5 260.454 952.242 326.5 870.496 326.5C788.75 326.5 722.496 260.454 722.496 179C722.496 97.5458 788.75 31.5 870.496 31.5C952.242 31.5 1018.5 97.5458 1018.5 179Z" stroke="url(#paint1_linear_2863_108)" stroke-width="5" shape-rendering="crispEdges"/>
</g>
<path d="M917.374 261.671C917.374 261.671 919.85 262.084 925.214 267.861C930.579 273.638 930.166 273.225 930.991 277.351C931.816 281.478 930.991 282.716 929.341 286.842C927.69 290.968 925.214 297.57 919.437 300.046C913.661 302.522 907.884 301.697 905.821 301.697C903.757 301.697 893.442 301.284 886.427 297.983C879.412 294.682 873.223 286.842 873.223 286.842L917.374 261.671Z" fill="url(#paint2_linear_2863_108)"/>
<path d="M936.77 184.154C936.77 184.154 946.26 173.838 956.576 168.062C966.892 162.285 966.892 160.634 975.97 161.047C985.048 161.459 988.761 179.615 990.412 189.106C992.062 198.596 993.713 208.087 992.888 219.641C992.062 231.194 989.586 243.161 984.222 250.588C978.858 258.015 978.033 257.19 966.892 256.778C955.751 256.365 936.77 240.272 936.77 240.272V184.154Z" fill="url(#paint3_linear_2863_108)"/>
<path d="M963.094 187.872C956.204 193.652 949.549 197.064 948.231 195.492C946.913 193.921 951.43 187.961 958.321 182.181C965.211 176.401 971.865 172.989 973.184 174.561C974.502 176.132 969.984 182.091 963.094 187.872Z" fill="#C58116"/>
<path d="M966.43 204.396C956.603 205.921 948.383 205.515 948.068 203.488C947.754 201.461 955.464 198.582 965.29 197.057C975.116 195.531 983.337 195.938 983.652 197.965C983.966 199.991 976.256 202.871 966.43 204.396Z" fill="#C58116"/>
<path d="M965.956 220.59C956.217 218.58 948.658 215.323 949.073 213.315C949.487 211.306 957.718 211.306 967.456 213.315C977.195 215.324 984.754 218.582 984.34 220.59C983.925 222.599 975.694 222.599 965.956 220.59Z" fill="#C58116"/>
<path d="M961.069 237.246C953.108 231.287 947.651 225.126 948.88 223.484C950.109 221.842 957.559 225.341 965.519 231.3C973.48 237.258 978.937 243.42 977.708 245.062C976.479 246.704 969.029 243.205 961.069 237.246Z" fill="#C58116"/>
<path d="M864.326 112.169C872.378 103.278 874.785 102.566 880.827 100.991C886.869 99.4153 893.573 99.8369 896.541 100.303C899.509 100.769 912.344 107.088 916.943 110.679C921.543 114.271 924.898 118.846 927.157 122.726C929.417 126.605 931.492 130.922 932.406 134.967C933.32 139.013 932.533 149.503 930.838 152.622C929.144 155.741 920.475 166.371 920.475 166.371L848.526 132.408C848.526 132.408 856.275 121.06 864.326 112.169Z" fill="url(#paint4_linear_2863_108)"/>
<path d="M944.197 211.741C944.197 257.091 891.545 293.855 826.596 293.855C761.648 293.855 708.996 257.091 708.996 211.741C708.996 166.391 761.648 129.627 826.596 129.627C891.545 129.627 944.197 166.391 944.197 211.741Z" fill="url(#paint5_linear_2863_108)"/>
<path fill-rule="evenodd" clip-rule="evenodd" d="M767.591 258.903C774.085 247.867 779.108 229.541 780.611 208.552C782.114 187.564 779.754 168.71 774.899 156.861C785.986 160.937 793.185 183.161 791.311 209.319C789.438 235.477 779.145 256.449 767.591 258.903Z" fill="#D58F21"/>
<path fill-rule="evenodd" clip-rule="evenodd" d="M802.254 189.594C807.071 185.407 809.626 179.701 808.563 174.012C807.635 169.051 804.138 165.072 799.278 162.7C807.686 163.406 814.206 167.365 815.294 173.185C816.469 179.474 810.945 186.029 802.254 189.594Z" fill="#D58F21"/>
<path fill-rule="evenodd" clip-rule="evenodd" d="M823.098 173.82C828.688 170.577 832.313 165.298 832.28 159.356C832.251 154.111 829.378 149.414 824.836 146.197C833.775 148.149 840.191 153.457 840.226 159.735C840.263 166.447 832.992 172.132 823.098 173.82Z" fill="#D58F21"/>
<path fill-rule="evenodd" clip-rule="evenodd" d="M824.677 267.982C830.69 265.847 835.154 261.471 836.245 255.788C837.197 250.833 835.399 245.851 831.744 241.865C839.308 245.598 843.926 251.667 842.809 257.48C841.603 263.762 834.066 267.841 824.677 267.982Z" fill="#D58F21"/>
<path fill-rule="evenodd" clip-rule="evenodd" d="M845.161 280.44C851.51 279.786 856.881 276.59 859.285 271.325C861.381 266.734 860.81 261.468 858.2 256.731C864.67 262.147 867.723 269.135 865.265 274.52C862.608 280.34 854.319 282.522 845.161 280.44Z" fill="#D58F21"/>
<path fill-rule="evenodd" clip-rule="evenodd" d="M855.06 242.948C860.245 239.227 863.32 233.783 862.79 228.019C862.328 222.994 859.216 218.707 854.597 215.893C862.904 217.377 869.027 221.926 869.569 227.822C870.155 234.193 864.044 240.206 855.06 242.948Z" fill="#D58F21"/>
<path fill-rule="evenodd" clip-rule="evenodd" d="M851.125 196.315C856.422 192.605 859.586 187.024 859.041 181.095C858.56 175.858 855.283 171.416 850.469 168.602C859.603 169.751 866.511 174.502 867.088 180.781C867.705 187.49 860.896 193.802 851.125 196.315Z" fill="#D58F21"/>
<path fill-rule="evenodd" clip-rule="evenodd" d="M877.393 262.906C882.664 259.236 885.832 253.497 885.269 247.364C884.761 241.845 881.341 237.191 876.398 234.385C886.959 234.793 895.329 239.866 895.967 246.805C896.637 254.097 888.536 260.92 877.393 262.906Z" fill="#D58F21"/>
<path fill-rule="evenodd" clip-rule="evenodd" d="M901.537 240.556C907.07 237.375 910.675 232.269 910.727 226.482C910.773 221.435 908.108 216.858 903.796 213.593C911.91 215.906 917.543 221.047 917.49 226.966C917.432 233.363 910.75 238.731 901.537 240.556Z" fill="#D58F21"/>
<path fill-rule="evenodd" clip-rule="evenodd" d="M913.662 207.775C919.195 204.594 922.8 199.487 922.852 193.7C922.898 188.654 920.233 184.076 915.921 180.812C924.035 183.125 929.668 188.265 929.615 194.185C929.557 200.582 922.875 205.949 913.662 207.775Z" fill="#D58F21"/>
<path fill-rule="evenodd" clip-rule="evenodd" d="M877.547 174.837C881.093 169.532 882.058 163.357 879.538 158.148C877.34 153.605 872.921 150.685 867.608 149.672C875.906 148.146 883.234 150.254 885.812 155.583C888.598 161.341 884.991 169.114 877.547 174.837Z" fill="#D58F21"/>
<path fill-rule="evenodd" clip-rule="evenodd" d="M792.585 255.232C799.206 252.813 804.637 247.344 806.755 240.01C808.874 232.677 807.195 225.155 802.884 219.578C813.457 223.869 819.7 233.848 817.06 242.987C814.42 252.126 803.817 257.24 792.585 255.232Z" fill="#D58F21"/>
<path fill-rule="evenodd" clip-rule="evenodd" d="M824.912 227.203C830.366 222.736 833.691 215.783 833.274 208.161C832.856 200.539 828.792 193.991 822.883 190.146C834.28 190.712 843.464 198.076 843.984 207.575C844.504 217.074 836.179 225.396 824.912 227.203Z" fill="#D58F21"/>
<path fill-rule="evenodd" clip-rule="evenodd" d="M881.475 214.477C887.292 211.391 891.206 206.154 891.45 200.075C891.694 193.996 888.212 188.462 882.66 184.919C893.962 186.321 902.471 192.928 902.167 200.505C901.863 208.081 892.852 213.986 881.475 214.477Z" fill="#D58F21"/>
<path d="M756.862 201.837C756.862 205.711 753.721 208.852 749.847 208.852C745.973 208.852 742.832 205.711 742.832 201.837C742.832 197.963 745.973 194.822 749.847 194.822C753.721 194.822 756.862 197.963 756.862 201.837Z" fill="#D48F21"/>
<path d="M887.551 123.346C885.391 130.55 882.047 135.912 880.082 135.323C878.118 134.734 878.276 128.416 880.436 121.213C882.597 114.009 885.94 108.648 887.905 109.237C889.869 109.826 889.711 116.143 887.551 123.346Z" fill="#D48F21"/>
<path d="M912.168 283.606C908.434 279.984 906.417 276.007 907.662 274.724C908.907 273.44 912.943 275.336 916.677 278.958C920.411 282.58 922.428 286.557 921.183 287.84C919.938 289.123 915.902 287.228 912.168 283.606Z" fill="#C58116"/>
<path d="M900.377 290.852C897.231 285.721 895.917 280.804 897.441 279.869C898.966 278.935 902.752 282.336 905.898 287.467C909.043 292.598 910.358 297.515 908.834 298.45C907.309 299.385 903.523 295.983 900.377 290.852Z" fill="#C58116"/>
<path d="M903.036 126.269C899.563 134.565 895.214 140.649 893.322 139.857C891.43 139.065 892.712 131.697 896.185 123.401C899.657 115.105 904.006 109.021 905.898 109.813C907.79 110.605 906.509 117.973 903.036 126.269Z" fill="#D48F21"/>
<path d="M914.302 138.568C909.119 143.814 903.735 146.898 902.276 145.456C900.817 144.015 903.836 138.594 909.018 133.348C914.201 128.102 919.585 125.018 921.044 126.46C922.503 127.901 919.485 133.322 914.302 138.568Z" fill="#D48F21"/>
<path d="M745.308 228.246C745.308 232.12 738.473 235.26 730.041 235.26C721.609 235.26 714.773 232.12 714.773 228.246C714.773 224.372 721.609 221.231 730.041 221.231C738.473 221.231 745.308 224.372 745.308 228.246Z" fill="#D48F21"/>
<path d="M970.965 209.088C970.965 209.088 973.059 210.473 975.607 217.933C978.155 225.393 977.946 224.848 977.021 228.953C976.095 233.058 974.837 233.853 971.65 236.95C968.463 240.047 963.514 245.07 957.23 244.98C950.945 244.89 946.005 241.785 944.12 240.945C942.236 240.105 932.981 235.529 927.917 229.659C922.854 223.788 920.391 214.108 920.391 214.108L970.965 209.088Z" fill="url(#paint6_linear_2863_108)"/>
<path d="M1020.23 146.179C1020.23 146.179 1033.1 140.62 1044.87 139.542C1056.65 138.464 1057.32 136.957 1065.44 141.029C1073.57 145.101 1069.57 163.196 1067.21 172.537C1064.86 181.877 1062.5 191.218 1057.04 201.435C1051.59 211.653 1044.46 221.575 1036.53 226.176C1028.61 230.777 1028.19 229.687 1018.18 224.775C1008.17 219.863 997.388 197.438 997.388 197.438L1020.23 146.179Z" fill="url(#paint7_linear_2863_108)"/>
<path d="M1042.76 160.291C1034.12 162.766 1026.65 163.174 1026.08 161.202C1025.52 159.23 1032.07 155.625 1040.72 153.15C1049.37 150.675 1056.83 150.267 1057.4 152.239C1057.96 154.211 1051.41 157.816 1042.76 160.291Z" fill="#C58116"/>
<path d="M1039.08 176.741C1029.48 174.135 1022.14 170.417 1022.68 168.438C1023.22 166.459 1031.43 166.967 1041.03 169.574C1050.62 172.18 1057.97 175.898 1057.43 177.877C1056.89 179.856 1048.68 179.348 1039.08 176.741Z" fill="#C58116"/>
<path d="M1032.06 191.34C1023.98 185.541 1018.41 179.489 1019.6 177.823C1020.8 176.157 1028.32 179.507 1036.39 185.306C1044.47 191.105 1050.05 197.157 1048.85 198.823C1047.66 200.489 1040.14 197.139 1032.06 191.34Z" fill="#C58116"/>
<path d="M1020.82 204.566C1015.97 195.883 1013.5 188.033 1015.29 187.034C1017.08 186.034 1022.46 192.263 1027.3 200.946C1032.15 209.629 1034.63 217.478 1032.84 218.478C1031.04 219.477 1025.66 213.249 1020.82 204.566Z" fill="#C58116"/>
<path d="M983.367 50.9406C994.341 46.0971 996.829 46.4264 1002.99 47.4467C1009.15 48.4671 1015.1 51.5809 1017.62 53.2148C1020.14 54.8486 1029.29 65.8442 1032.03 70.9968C1034.77 76.1494 1035.98 81.6943 1036.46 86.1575C1036.95 90.6208 1037.08 95.4091 1036.27 99.476C1035.46 103.543 1030.47 112.804 1027.65 114.964C1024.84 117.123 1012.59 123.303 1012.59 123.303L960.697 62.995C960.697 62.995 972.394 55.784 983.367 50.9406Z" fill="url(#paint8_linear_2863_108)"/>
<path d="M1015.79 174.4C997.33 215.824 934.274 227.973 874.949 201.536C815.624 175.099 782.496 120.088 800.955 78.6643C819.415 37.2409 882.471 25.0919 941.796 51.5287C1001.12 77.9655 1034.25 132.977 1015.79 174.4Z" fill="url(#paint9_linear_2863_108)"/>
<path fill-rule="evenodd" clip-rule="evenodd" d="M835.278 145.592C845.703 138.155 857.749 123.46 867.665 104.901C877.582 86.3419 883.101 68.1592 883.488 55.3599C891.958 63.5936 889.488 86.8255 877.129 109.957C864.77 133.089 846.831 148.056 835.278 145.592Z" fill="#D58F21"/>
<path fill-rule="evenodd" clip-rule="evenodd" d="M895.15 96.3939C901.252 94.5294 905.907 90.3583 907.251 84.7301C908.423 79.822 906.849 74.7649 903.376 70.6195C910.766 74.6873 915.106 80.9558 913.731 86.7128C912.246 92.934 904.536 96.6717 895.15 96.3939Z" fill="#D58F21"/>
<path fill-rule="evenodd" clip-rule="evenodd" d="M920.616 90.4721C927.041 89.7854 932.501 86.4394 934.89 80.9981C936.998 76.1958 936.286 70.737 933.447 65.95C940.816 71.3715 944.515 78.8308 941.992 84.5781C939.294 90.724 930.339 92.9571 920.616 90.4721Z" fill="#D58F21"/>
<path fill-rule="evenodd" clip-rule="evenodd" d="M883.73 177.12C890.091 177.617 895.948 175.438 899.258 170.691C902.145 166.551 902.529 161.267 900.812 156.137C906.205 162.627 907.954 170.052 904.567 174.909C900.908 180.156 892.364 180.814 883.73 177.12Z" fill="#D58F21"/>
<path fill-rule="evenodd" clip-rule="evenodd" d="M897.364 196.838C903.429 198.825 909.636 198.091 913.974 194.261C917.757 190.921 919.379 185.879 918.924 180.491C922.628 188.07 922.572 195.695 918.135 199.613C913.339 203.847 904.881 202.467 897.364 196.838Z" fill="#D58F21"/>
<path fill-rule="evenodd" clip-rule="evenodd" d="M921.667 166.623C927.916 165.334 932.939 161.613 934.8 156.134C936.424 151.356 935.326 146.173 932.253 141.723C939.235 146.46 942.975 153.106 941.071 158.711C939.013 164.768 930.987 167.773 921.667 166.623Z" fill="#D58F21"/>
<path fill-rule="evenodd" clip-rule="evenodd" d="M937.06 122.429C943.408 121.196 948.57 117.387 950.485 111.749C952.177 106.771 950.993 101.381 947.743 96.8521C955.613 101.62 959.986 108.768 957.958 114.736C955.79 121.114 947.005 124.108 937.06 122.429Z" fill="#D58F21"/>
<path fill-rule="evenodd" clip-rule="evenodd" d="M933.939 193.943C940.248 192.737 945.48 188.784 947.462 182.951C949.245 177.704 948.016 172.062 944.644 167.488C954.124 172.159 959.704 180.199 957.462 186.797C955.106 193.731 944.927 196.665 933.939 193.943Z" fill="#D58F21"/>
<path fill-rule="evenodd" clip-rule="evenodd" d="M965.092 183.356C971.439 182.703 976.81 179.506 979.213 174.241C981.309 169.65 980.739 164.384 978.128 159.647C984.598 165.062 987.652 172.051 985.193 177.436C982.537 183.256 974.249 185.438 965.092 183.356Z" fill="#D58F21"/>
<path fill-rule="evenodd" clip-rule="evenodd" d="M989.509 158.349C995.857 157.695 1001.23 154.498 1003.63 149.234C1005.73 144.643 1005.16 139.376 1002.55 134.639C1009.02 140.054 1012.07 147.043 1009.61 152.429C1006.95 158.248 998.667 160.431 989.509 158.349Z" fill="#D58F21"/>
<path fill-rule="evenodd" clip-rule="evenodd" d="M969.932 113.564C975.33 110.162 978.725 104.915 978.544 99.1307C978.386 94.0868 975.538 89.6206 971.098 86.5331C979.297 88.5166 985.133 93.425 985.319 99.3414C985.519 105.735 979.061 111.367 969.932 113.564Z" fill="#D58F21"/>
<path fill-rule="evenodd" clip-rule="evenodd" d="M859.6 152.413C866.632 152.898 873.82 150.113 878.74 144.277C883.659 138.441 885.188 130.886 883.52 124.038C891.433 132.26 893.074 143.918 886.942 151.192C880.81 158.466 869.043 158.82 859.6 152.413Z" fill="#D58F21"/>
<path fill-rule="evenodd" clip-rule="evenodd" d="M900.541 139.97C907.34 138.11 913.207 133.112 915.928 125.98C918.65 118.848 917.602 111.211 913.77 105.295C923.952 110.45 929.345 120.916 925.953 129.805C922.562 138.694 911.568 142.907 900.541 139.97Z" fill="#D58F21"/>
<path fill-rule="evenodd" clip-rule="evenodd" d="M957.385 151.371C963.956 150.92 969.663 147.73 972.361 142.276C975.058 136.823 974.131 130.353 970.503 124.858C980.254 130.738 985.335 140.236 981.974 147.032C978.612 153.828 967.978 155.554 957.385 151.371Z" fill="#D58F21"/>
<path d="M848.705 89.1018C847.129 92.6405 842.982 94.2308 839.443 92.6539C835.904 91.0769 834.314 86.9299 835.891 83.3912C837.468 79.8526 841.615 78.2622 845.153 79.8392C848.692 81.4161 850.282 85.5631 848.705 89.1018Z" fill="#D48F21"/>
<path d="M1000.03 70.6036C995.12 76.3041 989.884 79.8407 988.329 78.5029C986.774 77.1651 989.49 71.4595 994.396 65.7591C999.301 60.0586 1004.54 56.522 1006.09 57.8598C1007.65 59.1976 1004.93 64.9032 1000.03 70.6036Z" fill="#D48F21"/>
<path d="M957.281 227.005C955.345 222.177 955.121 217.723 956.78 217.058C958.44 216.392 961.355 219.766 963.291 224.595C965.227 229.423 965.451 233.876 963.792 234.542C962.132 235.208 959.217 231.833 957.281 227.005Z" fill="#C58116"/>
<path d="M943.561 228.822C942.776 222.854 943.577 217.828 945.35 217.595C947.122 217.362 949.196 222.01 949.981 227.977C950.766 233.944 949.965 238.971 948.192 239.204C946.42 239.437 944.346 234.789 943.561 228.822Z" fill="#C58116"/>
<path d="M1012.98 79.5763C1006.43 85.7406 999.981 89.5271 998.575 88.0336C997.17 86.5401 1001.34 80.3322 1007.89 74.1679C1014.44 68.0035 1020.89 64.2171 1022.29 65.7105C1023.7 67.204 1019.53 73.4119 1012.98 79.5763Z" fill="#D48F21"/>
<path d="M1018.26 95.3945C1011.39 98.0765 1005.22 98.7019 1004.47 96.7914C1003.73 94.8808 1008.69 91.1578 1015.56 88.4758C1022.43 85.7938 1028.6 85.1684 1029.35 87.079C1030.09 88.9895 1025.13 92.7125 1018.26 95.3945Z" fill="#D48F21"/>
<path d="M827.403 108.52C825.826 112.059 818.304 112.145 810.602 108.713C802.9 105.281 797.935 99.6301 799.512 96.0914C801.089 92.5527 808.611 92.4664 816.313 95.8985C824.014 99.3307 828.98 104.982 827.403 108.52Z" fill="#D48F21"/>
<rect x="94" y="188" width="463" height="88" rx="12" fill="#F4BB43"/>
<path d="M159.422 205.478H167.63V256.076H159.422V205.478ZM153.59 224.54H161.366V231.452H153.59V224.54ZM148.19 206.234H156.182V253.808H148.19V206.234ZM125.132 238.202H128.804C134.42 238.202 139.712 238.04 145.76 237.014L146.408 243.98C140.198 245.114 134.69 245.276 128.804 245.276H125.132V238.202ZM125.132 211.202H143.762V218.114H133.664V241.604H125.132V211.202ZM175.024 228.698H220.816V235.502H175.024V228.698ZM193.6 221.354H202.24V231.29H193.6V221.354ZM180.424 218.6H215.686V225.35H180.424V218.6ZM180.424 207.584H215.47V214.334H189.01V223.028H180.424V207.584ZM197.704 237.446C208.666 237.446 215.362 240.794 215.362 246.842C215.362 252.836 208.666 256.238 197.704 256.238C186.688 256.238 179.992 252.836 179.992 246.842C179.992 240.794 186.688 237.446 197.704 237.446ZM197.704 243.926C191.494 243.926 188.74 244.736 188.74 246.842C188.74 249.002 191.494 249.758 197.704 249.758C203.86 249.758 206.614 249.002 206.614 246.842C206.614 244.736 203.86 243.926 197.704 243.926ZM244.41 232.1H253.158V239.768H244.41V232.1ZM225.942 228.752H271.734V235.502H225.942V228.752ZM248.73 237.932C259.746 237.932 266.388 241.226 266.388 247.058C266.388 252.944 259.746 256.184 248.73 256.184C237.66 256.184 231.018 252.944 231.018 247.058C231.018 241.226 237.66 237.932 248.73 237.932ZM248.73 244.358C242.466 244.358 239.766 245.06 239.766 247.058C239.766 249.11 242.466 249.812 248.73 249.812C254.94 249.812 257.64 249.11 257.64 247.058C257.64 245.06 254.94 244.358 248.73 244.358ZM231.666 206.828H240.198V210.392H257.424V206.828H266.01V226.268H231.666V206.828ZM240.198 216.764V219.572H257.424V216.764H240.198ZM291.007 208.772C298.675 208.772 304.345 215.846 304.345 227.078C304.345 238.364 298.675 245.438 291.007 245.438C283.393 245.438 277.723 238.364 277.723 227.078C277.723 215.846 283.393 208.772 291.007 208.772ZM291.007 216.656C287.983 216.656 285.985 219.95 285.985 227.078C285.985 234.26 287.983 237.554 291.007 237.554C294.139 237.554 296.083 234.26 296.083 227.078C296.083 219.95 294.139 216.656 291.007 216.656ZM311.257 205.424H319.897V256.238H311.257V205.424ZM301.861 223.136H314.875V230.048H301.861V223.136ZM361.959 205.532H370.437V235.772H361.959V205.532ZM365.793 216.656H374.487V223.73H365.793V216.656ZM328.047 208.772H334.959V214.442H336.579V208.772H343.491V233.018H328.047V208.772ZM334.959 221.03V226.268H336.579V221.03H334.959ZM344.895 208.772H351.807V214.442H353.265V208.772H360.231V233.018H344.895V208.772ZM351.807 221.03V226.268H353.265V221.03H351.807ZM352.455 236.528C363.687 236.528 370.653 240.2 370.653 246.356C370.653 252.62 363.687 256.184 352.455 256.184C341.331 256.184 334.365 252.62 334.365 246.356C334.365 240.2 341.331 236.528 352.455 236.528ZM352.455 243.062C346.137 243.062 343.167 243.98 343.167 246.356C343.167 248.732 346.137 249.65 352.455 249.65C358.881 249.65 361.851 248.732 361.851 246.356C361.851 243.98 358.881 243.062 352.455 243.062ZM401.591 215.306H414.551V222.218H401.591V215.306ZM401.591 230.858H414.551V237.77H401.591V230.858ZM393.059 208.772C400.727 208.772 406.397 215.846 406.397 227.078C406.397 238.364 400.727 245.438 393.059 245.438C385.445 245.438 379.775 238.364 379.775 227.078C379.775 215.846 385.445 208.772 393.059 208.772ZM393.059 216.656C390.035 216.656 387.983 219.95 387.983 227.078C387.983 234.26 390.035 237.554 393.059 237.554C396.191 237.554 398.189 234.26 398.189 227.078C398.189 219.95 396.191 216.656 393.059 216.656ZM413.309 205.424H421.949V256.238H413.309V205.424ZM441.601 213.848H448.459V218.222C448.459 230.426 444.625 242.198 434.311 246.734L429.451 239.93C438.523 235.934 441.601 226.7 441.601 218.222V213.848ZM443.599 213.848H450.403V218.222C450.403 226.214 453.427 234.962 462.391 238.634L457.747 245.438C447.379 241.118 443.599 229.886 443.599 218.222V213.848ZM431.665 210.176H460.123V217.25H431.665V210.176ZM463.687 205.532H472.381V256.13H463.687V205.532ZM486.2 227.51H522.218V234.368H486.2V227.51ZM481.124 243.764H526.916V250.784H481.124V243.764ZM499.646 230.696H508.286V245.87H499.646V230.696ZM486.2 208.664H521.894V215.522H494.84V230.48H486.2V208.664Z" fill="#CA4A13"/>
<g filter="url(#filter1_d_2863_108)">
<path d="M532.302 203.165C530.995 204.201 529.227 202.651 530.083 201.22L542.443 180.548C542.924 179.745 544.015 179.573 544.719 180.19L551.234 185.901C551.938 186.518 551.91 187.623 551.177 188.204L532.302 203.165Z" fill="#454545"/>
<circle cx="554.937" cy="171.95" r="17.311" transform="rotate(13.6681 554.937 171.95)" fill="#E1325C"/>
<ellipse cx="550.216" cy="162.884" rx="3.8469" ry="3.8469" transform="rotate(13.6681 550.216 162.884)" fill="white" fill-opacity="0.6"/>
<path d="M557.679 181.022C559.623 182.554 562.244 182.534 564.613 180.888" stroke="black" stroke-width="1.8" stroke-linecap="round"/>
<ellipse cx="564.612" cy="170.839" rx="1.44259" ry="1.44259" transform="rotate(13.6681 564.612 170.839)" fill="black"/>
<ellipse cx="557.866" cy="174.147" rx="1.44259" ry="1.44259" transform="rotate(13.6681 557.866 174.147)" fill="black"/>
</g>
<defs>
<filter id="filter0_d_2863_108" x="719.996" y="29" width="317" height="316" filterUnits="userSpaceOnUse" color-interpolation-filters="sRGB">
<feFlood flood-opacity="0" result="BackgroundImageFix"/>
<feColorMatrix in="SourceAlpha" type="matrix" values="0 0 0 0 0 0 0 0 0 0 0 0 0 0 0 0 0 0 127 0" result="hardAlpha"/>
<feOffset dx="8" dy="8"/>
<feGaussianBlur stdDeviation="4"/>
<feComposite in2="hardAlpha" operator="out"/>
<feColorMatrix type="matrix" values="0 0 0 0 0 0 0 0 0 0 0 0 0 0 0 0 0 0 0.25 0"/>
<feBlend mode="normal" in2="BackgroundImageFix" result="effect1_dropShadow_2863_108"/>
<feBlend mode="normal" in="SourceGraphic" in2="effect1_dropShadow_2863_108" result="shape"/>
</filter>
<filter id="filter1_d_2863_108" x="518" y="149" width="64.8516" height="79.1821" filterUnits="userSpaceOnUse" color-interpolation-filters="sRGB">
<feFlood flood-opacity="0" result="BackgroundImageFix"/>
<feColorMatrix in="SourceAlpha" type="matrix" values="0 0 0 0 0 0 0 0 0 0 0 0 0 0 0 0 0 0 127 0" result="hardAlpha"/>
<feOffset dx="3" dy="4"/>
<feGaussianBlur stdDeviation="2"/>
<feComposite in2="hardAlpha" operator="out"/>
<feColorMatrix type="matrix" values="0 0 0 0 0 0 0 0 0 0 0 0 0 0 0 0 0 0 0.25 0"/>
<feBlend mode="normal" in2="BackgroundImageFix" result="effect1_dropShadow_2863_108"/>
<feBlend mode="normal" in="SourceGraphic" in2="effect1_dropShadow_2863_108" result="shape"/>
</filter>
<linearGradient id="paint0_linear_2863_108" x1="796.996" y1="47.5" x2="1144" y2="435" gradientUnits="userSpaceOnUse">
<stop stop-color="#F7F7F7"/>
<stop offset="1" stop-color="#F7F7F7" stop-opacity="0.4"/>
</linearGradient>
<linearGradient id="paint1_linear_2863_108" x1="788.496" y1="54.5" x2="983.496" y2="280.5" gradientUnits="userSpaceOnUse">
<stop stop-color="#E0E0E0"/>
<stop offset="1" stop-color="#D9D9D9" stop-opacity="0"/>
</linearGradient>
<linearGradient id="paint2_linear_2863_108" x1="902.269" y1="261.671" x2="902.107" y2="335.945" gradientUnits="userSpaceOnUse">
<stop stop-color="#EBA43F"/>
<stop offset="1" stop-color="#C97B1D"/>
</linearGradient>
<linearGradient id="paint3_linear_2863_108" x1="940.071" y1="245.989" x2="989.174" y2="202.25" gradientUnits="userSpaceOnUse">
<stop stop-color="#F8BE51"/>
<stop offset="1" stop-color="#E49535"/>
</linearGradient>
<linearGradient id="paint4_linear_2863_108" x1="865.341" y1="154.176" x2="938.408" y2="109.425" gradientUnits="userSpaceOnUse">
<stop stop-color="#FAC153"/>
<stop offset="1" stop-color="#EDA741"/>
</linearGradient>
<linearGradient id="paint5_linear_2863_108" x1="738.293" y1="156.448" x2="986.698" y2="319.025" gradientUnits="userSpaceOnUse">
<stop stop-color="#FFBB2E"/>
<stop offset="1" stop-color="#EFB783"/>
</linearGradient>
<linearGradient id="paint6_linear_2863_108" x1="957.168" y1="202.94" x2="926.787" y2="270.716" gradientUnits="userSpaceOnUse">
<stop stop-color="#EBA43F"/>
<stop offset="1" stop-color="#C97B1D"/>
</linearGradient>
<linearGradient id="paint7_linear_2863_108" x1="998.076" y1="204.004" x2="1060.73" y2="184.039" gradientUnits="userSpaceOnUse">
<stop stop-color="#F8BE51"/>
<stop offset="1" stop-color="#E49535"/>
</linearGradient>
<linearGradient id="paint8_linear_2863_108" x1="967.196" y1="89.7235" x2="1052.15" y2="78.5881" gradientUnits="userSpaceOnUse">
<stop stop-color="#FAC153"/>
<stop offset="1" stop-color="#EDA741"/>
</linearGradient>
<linearGradient id="paint9_linear_2863_108" x1="850.222" y1="40.0843" x2="1010.94" y2="289.695" gradientUnits="userSpaceOnUse">
<stop stop-color="#FBC555"/>
<stop offset="1" stop-color="#D97F26"/>
</linearGradient>
</defs>
</svg>
