<svg width="1036" height="352" viewBox="0 0 1036 352" fill="none" xmlns="http://www.w3.org/2000/svg">
<rect y="221" width="599" height="131" fill="#68290E"/>
<path fill-rule="evenodd" clip-rule="evenodd" d="M1036 0H0V352C0 279.098 59.0984 220 132 220H453C525.902 220 585 279.098 585 352H1036V0Z" fill="#D7B689"/>
<path d="M90.652 116.846H95.986V155.738H90.652V116.846ZM85.57 131.84H92.038V136.292H85.57V131.84ZM81.958 117.518H87.166V153.89H81.958V117.518ZM64.192 121.13H69.778V143.6H64.192V121.13ZM64.192 141.5H66.88C70.618 141.5 74.986 141.29 79.816 140.366L80.362 145.154C75.28 146.078 70.828 146.288 66.88 146.288H64.192V141.5ZM125.443 121.172H130.273V122.306C130.273 129.152 124.687 134.738 114.817 136.082L112.759 131.714C121.327 130.664 125.443 126.296 125.443 122.306V121.172ZM127.039 121.172H131.869V122.306C131.869 126.296 135.985 130.664 144.553 131.714L142.537 136.082C132.625 134.738 127.039 129.152 127.039 122.306V121.172ZM125.737 141.5H131.281V155.78H125.737V141.5ZM111.079 138.308H146.233V142.76H111.079V138.308ZM114.187 118.82H143.041V123.23H114.187V118.82ZM168.742 123.356H178.654V127.766H168.742V123.356ZM168.742 131.714H178.822V136.124H168.742V131.714ZM176.638 116.888H182.224V145.574H176.638V116.888ZM156.478 150.614H183.064V155.066H156.478V150.614ZM156.478 142.76H162.106V153.176H156.478V142.76ZM151.312 119.408H156.856V125.33H164.248V119.408H169.708V139.484H151.312V119.408ZM156.856 129.572V135.074H164.248V129.572H156.856ZM212.774 137.174H218.402V143.222H212.774V137.174ZM198.032 134.99H233.186V139.4H198.032V134.99ZM215.546 141.878C223.988 141.878 229.028 144.398 229.028 148.85C229.028 153.302 223.988 155.738 215.546 155.738C207.104 155.738 202.064 153.302 202.064 148.85C202.064 144.398 207.104 141.878 215.546 141.878ZM215.546 146.078C210.296 146.078 207.692 146.918 207.692 148.85C207.692 150.74 210.296 151.58 215.546 151.58C220.754 151.58 223.358 150.74 223.358 148.85C223.358 146.918 220.754 146.078 215.546 146.078ZM202.526 117.854H208.028V121.13H223.19V117.854H228.734V132.596H202.526V117.854ZM208.028 125.33V128.228H223.19V125.33H208.028ZM247.336 119.534C253.132 119.534 257.374 124.91 257.374 133.394C257.374 141.962 253.132 147.338 247.336 147.338C241.498 147.338 237.298 141.962 237.298 133.394C237.298 124.91 241.498 119.534 247.336 119.534ZM247.336 124.616C244.522 124.616 242.632 127.682 242.632 133.394C242.632 139.19 244.522 142.298 247.336 142.298C250.192 142.298 252.04 139.19 252.04 133.394C252.04 127.682 250.192 124.616 247.336 124.616ZM263.758 116.804H269.302V155.822H263.758V116.804ZM255.736 130.832H266.11V135.326H255.736V130.832ZM301.933 116.846H307.435V140.282H301.933V116.846ZM304.453 125.918H311.131V130.496H304.453V125.918ZM275.683 119.45H280.219V124.406H282.529V119.45H287.065V137.846H275.683V119.45ZM280.219 128.69V133.436H282.529V128.69H280.219ZM288.577 119.45H293.113V124.406H295.339V119.45H299.875V137.846H288.577V119.45ZM293.113 128.69V133.436H295.339V128.69H293.113ZM293.995 140.912C302.437 140.912 307.645 143.684 307.645 148.346C307.645 153.05 302.437 155.738 293.995 155.738C285.595 155.738 280.387 153.05 280.387 148.346C280.387 143.684 285.595 140.912 293.995 140.912ZM293.995 145.196C288.787 145.196 286.057 146.204 286.057 148.346C286.057 150.446 288.787 151.496 293.995 151.496C299.245 151.496 301.975 150.446 301.975 148.346C301.975 146.204 299.245 145.196 293.995 145.196ZM348.526 116.804H354.154V155.696H348.526V116.804ZM352.684 131.672H359.53V136.25H352.684V131.672ZM338.32 120.836H343.78C343.78 132.512 339.328 142.508 326.392 149.018L323.284 144.776C333.49 139.484 338.32 132.344 338.32 121.802V120.836ZM325.426 120.836H341.176V125.33H325.426V120.836ZM390.481 116.846H395.815V155.738H390.481V116.846ZM375.067 131.756H383.383V136.166H375.067V131.756ZM382.291 117.686H387.499V154.016H382.291V117.686ZM373.807 121.424H379.183C379.183 132.512 375.865 141.332 364.945 147.674L361.795 143.768C370.657 138.434 373.807 131.966 373.807 122.558V121.424ZM363.979 121.424H375.571V125.876H363.979V121.424ZM405.304 127.346H432.268V131.756H405.304V127.346ZM400.936 135.788H436.174V140.24H400.936V135.788ZM405.304 118.232H410.848V129.53H405.304V118.232ZM404.926 150.446H432.478V154.898H404.926V150.446ZM404.926 143.348H410.512V151.622H404.926V143.348ZM445.887 142.842V142.335C445.897 140.595 446.051 139.208 446.349 138.174C446.657 137.14 447.105 136.305 447.692 135.668C448.278 135.032 448.984 134.455 449.809 133.938C450.426 133.54 450.978 133.128 451.465 132.7C451.952 132.273 452.34 131.8 452.628 131.283C452.917 130.756 453.061 130.17 453.061 129.523C453.061 128.837 452.897 128.236 452.569 127.719C452.241 127.202 451.798 126.804 451.241 126.526C450.694 126.247 450.088 126.108 449.422 126.108C448.775 126.108 448.164 126.252 447.587 126.54C447.01 126.819 446.538 127.237 446.17 127.793C445.802 128.34 445.604 129.021 445.574 129.837H439.488C439.538 127.848 440.015 126.207 440.92 124.915C441.825 123.612 443.023 122.643 444.515 122.006C446.006 121.36 447.652 121.037 449.452 121.037C451.43 121.037 453.18 121.365 454.702 122.021C456.223 122.668 457.416 123.607 458.281 124.84C459.146 126.073 459.579 127.56 459.579 129.3C459.579 130.463 459.385 131.497 458.997 132.402C458.619 133.297 458.087 134.092 457.401 134.788C456.715 135.474 455.905 136.096 454.97 136.653C454.184 137.12 453.538 137.607 453.031 138.114C452.534 138.621 452.161 139.208 451.912 139.874C451.674 140.54 451.55 141.361 451.54 142.335V142.842H445.887ZM448.84 152.388C447.846 152.388 446.996 152.04 446.29 151.344C445.594 150.638 445.251 149.793 445.26 148.808C445.251 147.834 445.594 146.999 446.29 146.303C446.996 145.607 447.846 145.259 448.84 145.259C449.785 145.259 450.615 145.607 451.331 146.303C452.047 146.999 452.41 147.834 452.42 148.808C452.41 149.464 452.236 150.066 451.898 150.613C451.569 151.15 451.137 151.582 450.6 151.911C450.063 152.229 449.476 152.388 448.84 152.388Z" fill="white"/>
<path d="M79.9 80.536H83.652V106.548H79.9V80.536ZM69.68 82.356C73.6 82.356 76.484 85.94 76.484 91.596C76.484 97.308 73.6 100.892 69.68 100.892C65.76 100.892 62.876 97.308 62.876 91.596C62.876 85.94 65.76 82.356 69.68 82.356ZM69.68 85.744C67.748 85.744 66.432 87.788 66.432 91.596C66.432 95.46 67.748 97.532 69.68 97.532C71.612 97.532 72.9 95.46 72.9 91.596C72.9 87.788 71.612 85.744 69.68 85.744ZM100.142 87.452H106.806V90.42H100.142V87.452ZM105.854 80.592H109.578V99.716H105.854V80.592ZM92.4138 103.076H110.138V106.044H92.4138V103.076ZM92.4138 97.84H96.1658V104.784H92.4138V97.84ZM88.9698 82.272H92.6658V86.22H97.5938V82.272H101.234V95.656H88.9698V82.272ZM92.6658 89.048V92.716H97.5938V89.048H92.6658ZM129.608 83.252H133.276C133.276 91.064 130.476 97.672 121.768 102.04L119.836 99.128C126.696 95.572 129.608 90.868 129.608 83.924V83.252ZM121.068 83.252H131.568V86.192H121.068V83.252ZM138.092 80.564H141.816V106.492H138.092V80.564ZM132.268 87.2H138.624V90.14H132.268V87.2ZM131.988 94.284H138.372V97.252H131.988V94.284ZM155.702 92.912H159.426V96.524H155.702V92.912ZM157.606 80.816C163.514 80.816 166.986 82.356 166.986 85.212C166.986 88.068 163.514 89.636 157.606 89.636C151.67 89.636 148.226 88.068 148.226 85.212C148.226 82.356 151.67 80.816 157.606 80.816ZM157.606 83.532C153.854 83.532 152.09 84.064 152.09 85.212C152.09 86.416 153.854 86.92 157.606 86.92C161.358 86.92 163.122 86.416 163.122 85.212C163.122 84.064 161.358 83.532 157.606 83.532ZM145.874 90.756H169.31V93.696H145.874V90.756ZM148.562 95.376H166.482V102.04H152.258V104.336H148.59V99.464H162.814V98.148H148.562V95.376ZM148.59 103.524H167.154V106.324H148.59V103.524ZM182.048 87.592H185.996V90.588H182.048V87.592ZM177.652 82.44C181.068 82.44 183.588 85.128 183.588 88.992C183.588 92.828 181.068 95.544 177.652 95.544C174.208 95.544 171.716 92.828 171.716 88.992C171.716 85.128 174.208 82.44 177.652 82.44ZM177.652 85.632C176.14 85.632 175.048 86.864 175.048 88.992C175.048 91.12 176.14 92.352 177.652 92.352C179.136 92.352 180.256 91.12 180.256 88.992C180.256 86.864 179.136 85.632 177.652 85.632ZM190.196 80.564H193.724V99.856H190.196V80.564ZM185.072 80.984H188.544V99.072H185.072V80.984ZM176.28 103.076H194.396V106.044H176.28V103.076ZM176.28 97.392H180.004V104.644H176.28V97.392ZM221.678 80.564H225.43V93.668H221.678V80.564ZM208.126 94.816H225.43V101.844H211.822V104.448H208.182V99.156H221.734V97.644H208.126V94.816ZM208.182 103.44H226.074V106.324H208.182V103.44ZM209.946 81.152H213.026V83.112C213.026 87.9 210.618 92.24 205.55 93.78L203.758 90.84C208.098 89.524 209.946 86.276 209.946 83.112V81.152ZM210.702 81.152H213.754V83.112C213.754 86.192 215.574 89.216 219.802 90.42L218.01 93.304C213.026 91.848 210.702 87.788 210.702 83.112V81.152ZM243.208 87.732H248.22V90.728H243.208V87.732ZM247.604 80.564H251.328V98.036H247.604V80.564ZM240.744 96.076H243.908V96.692C243.908 101.452 240.436 105.316 234.08 106.38L232.652 103.468C238.14 102.628 240.744 99.632 240.744 96.692V96.076ZM241.276 96.076H244.44V96.692C244.44 99.604 247.016 102.6 252.532 103.44L251.048 106.38C244.72 105.316 241.276 101.452 241.276 96.692V96.076ZM239.372 82.272H243.236C243.236 89.552 240.016 94.424 231.476 97.168L229.992 94.284C237.132 92.044 239.372 88.516 239.372 83.784V82.272ZM231.364 82.272H241.78V85.24H231.364V82.272ZM239.82 87.256V89.804L230.58 90.476L230.048 87.592L239.82 87.256ZM265.898 97.112H283.566V106.52H279.842V100.024H265.898V97.112ZM279.842 80.564H283.566V95.908H279.842V80.564ZM274.55 86.752H280.766V89.748H274.55V86.752ZM262.93 82.44H275.194V94.508H262.93V82.44ZM271.526 85.38H266.598V91.596H271.526V85.38ZM293.448 84.652H296.388V87.564C296.388 93.416 293.924 99.38 289.164 101.62L287.064 98.68C291.348 96.664 293.448 91.82 293.448 87.564V84.652ZM294.232 84.652H297.172V87.564C297.172 91.484 299.188 96.076 303.444 98.036L301.4 100.976C296.64 98.764 294.232 93.08 294.232 87.564V84.652ZM288.072 83.056H302.296V86.108H288.072V83.056ZM304.2 80.564H307.952V106.492H304.2V80.564ZM307.112 90.448H311.704V93.528H307.112V90.448ZM319.013 83.6364L318.625 97.8949H314.986L314.588 83.6364H319.013ZM316.806 104.259C316.15 104.259 315.586 104.027 315.115 103.562C314.645 103.092 314.413 102.528 314.419 101.872C314.413 101.223 314.645 100.666 315.115 100.202C315.586 99.7377 316.15 99.5057 316.806 99.5057C317.435 99.5057 317.989 99.7377 318.466 100.202C318.944 100.666 319.185 101.223 319.192 101.872C319.185 102.31 319.069 102.711 318.844 103.075C318.625 103.433 318.337 103.722 317.979 103.94C317.621 104.152 317.23 104.259 316.806 104.259Z" fill="white"/>
<g filter="url(#filter0_d_2854_743)">
<ellipse cx="798.5" cy="179" rx="150.5" ry="150" fill="url(#paint0_linear_2854_743)" shape-rendering="crispEdges"/>
<path d="M946.5 179C946.5 260.454 880.246 326.5 798.5 326.5C716.754 326.5 650.5 260.454 650.5 179C650.5 97.5458 716.754 31.5 798.5 31.5C880.246 31.5 946.5 97.5458 946.5 179Z" stroke="url(#paint1_linear_2854_743)" stroke-width="5" shape-rendering="crispEdges"/>
</g>
<path d="M845.378 261.67C845.378 261.67 847.854 262.083 853.218 267.86C858.582 273.637 858.17 273.224 858.995 277.35C859.82 281.477 858.995 282.715 857.345 286.841C855.694 290.967 853.218 297.569 847.441 300.045C841.665 302.521 835.888 301.696 833.825 301.696C831.761 301.696 821.446 301.283 814.431 297.982C807.416 294.681 801.227 286.841 801.227 286.841L845.378 261.67Z" fill="url(#paint2_linear_2854_743)"/>
<path d="M864.773 184.154C864.773 184.154 874.264 173.838 884.58 168.062C894.896 162.285 894.896 160.634 903.974 161.047C913.051 161.459 916.765 179.615 918.416 189.106C920.066 198.596 921.717 208.087 920.891 219.641C920.066 231.194 917.59 243.161 912.226 250.588C906.862 258.015 906.037 257.19 894.896 256.778C883.755 256.365 864.773 240.272 864.773 240.272V184.154Z" fill="url(#paint3_linear_2854_743)"/>
<path d="M891.098 187.872C884.207 193.652 877.553 197.064 876.235 195.492C874.917 193.921 879.434 187.961 886.324 182.181C893.215 176.401 899.869 172.989 901.187 174.561C902.506 176.132 897.988 182.091 891.098 187.872Z" fill="#C58116"/>
<path d="M894.433 204.396C884.607 205.921 876.387 205.515 876.072 203.488C875.757 201.461 883.468 198.582 893.294 197.057C903.12 195.531 911.341 195.938 911.656 197.965C911.97 199.991 904.26 202.871 894.433 204.396Z" fill="#C58116"/>
<path d="M893.96 220.59C884.221 218.58 876.662 215.323 877.076 213.315C877.491 211.306 885.722 211.306 895.46 213.315C905.199 215.324 912.758 218.582 912.343 220.59C911.929 222.599 903.698 222.599 893.96 220.59Z" fill="#C58116"/>
<path d="M889.073 237.246C881.112 231.287 875.655 225.126 876.884 223.484C878.113 221.842 885.563 225.341 893.523 231.3C901.484 237.258 906.941 243.42 905.712 245.062C904.483 246.704 897.033 243.205 889.073 237.246Z" fill="#C58116"/>
<path d="M792.33 112.169C800.382 103.278 802.789 102.566 808.831 100.991C814.873 99.4153 821.577 99.8369 824.545 100.303C827.513 100.769 840.347 107.088 844.947 110.679C849.547 114.271 852.902 118.846 855.161 122.726C857.42 126.605 859.496 130.922 860.41 134.967C861.324 139.013 860.537 149.503 858.842 152.622C857.148 155.741 848.478 166.371 848.478 166.371L776.529 132.408C776.529 132.408 784.279 121.06 792.33 112.169Z" fill="url(#paint4_linear_2854_743)"/>
<path d="M872.2 211.741C872.2 257.091 819.549 293.855 754.6 293.855C689.651 293.855 637 257.091 637 211.741C637 166.391 689.651 129.627 754.6 129.627C819.549 129.627 872.2 166.391 872.2 211.741Z" fill="url(#paint5_linear_2854_743)"/>
<path fill-rule="evenodd" clip-rule="evenodd" d="M695.595 258.903C702.089 247.867 707.112 229.541 708.615 208.552C710.118 187.564 707.758 168.71 702.903 156.861C713.99 160.937 721.189 183.161 719.315 209.319C717.442 235.477 707.149 256.449 695.595 258.903Z" fill="#D58F21"/>
<path fill-rule="evenodd" clip-rule="evenodd" d="M730.258 189.594C735.075 185.407 737.63 179.701 736.566 174.012C735.639 169.051 732.142 165.072 727.282 162.7C735.69 163.406 742.21 167.365 743.298 173.185C744.473 179.474 738.949 186.029 730.258 189.594Z" fill="#D58F21"/>
<path fill-rule="evenodd" clip-rule="evenodd" d="M751.102 173.82C756.692 170.577 760.317 165.298 760.284 159.356C760.255 154.111 757.382 149.414 752.84 146.197C761.779 148.149 768.195 153.457 768.23 159.735C768.267 166.447 760.996 172.132 751.102 173.82Z" fill="#D58F21"/>
<path fill-rule="evenodd" clip-rule="evenodd" d="M752.681 267.981C758.694 265.846 763.158 261.47 764.249 255.787C765.201 250.832 763.403 245.85 759.748 241.864C767.312 245.597 771.93 251.666 770.813 257.479C769.607 263.761 762.07 267.84 752.681 267.981Z" fill="#D58F21"/>
<path fill-rule="evenodd" clip-rule="evenodd" d="M773.165 280.439C779.514 279.785 784.885 276.589 787.289 271.324C789.384 266.733 788.814 261.467 786.204 256.73C792.674 262.146 795.727 269.134 793.269 274.519C790.612 280.339 782.323 282.521 773.165 280.439Z" fill="#D58F21"/>
<path fill-rule="evenodd" clip-rule="evenodd" d="M783.064 242.948C788.249 239.227 791.323 233.783 790.794 228.019C790.332 222.994 787.22 218.707 782.601 215.893C790.908 217.377 797.031 221.926 797.573 227.822C798.159 234.193 792.048 240.206 783.064 242.948Z" fill="#D58F21"/>
<path fill-rule="evenodd" clip-rule="evenodd" d="M779.129 196.315C784.426 192.605 787.59 187.024 787.045 181.095C786.564 175.858 783.287 171.416 778.473 168.602C787.607 169.751 794.515 174.502 795.092 180.781C795.709 187.49 788.9 193.802 779.129 196.315Z" fill="#D58F21"/>
<path fill-rule="evenodd" clip-rule="evenodd" d="M805.397 262.905C810.668 259.235 813.836 253.496 813.273 247.363C812.765 241.844 809.345 237.19 804.402 234.384C814.963 234.792 823.333 239.865 823.971 246.804C824.641 254.096 816.54 260.919 805.397 262.905Z" fill="#D58F21"/>
<path fill-rule="evenodd" clip-rule="evenodd" d="M829.541 240.556C835.074 237.375 838.679 232.269 838.731 226.482C838.777 221.435 836.112 216.858 831.8 213.593C839.914 215.906 845.547 221.047 845.494 226.966C845.436 233.363 838.754 238.731 829.541 240.556Z" fill="#D58F21"/>
<path fill-rule="evenodd" clip-rule="evenodd" d="M841.666 207.775C847.199 204.594 850.804 199.487 850.856 193.7C850.902 188.654 848.237 184.076 843.925 180.812C852.039 183.125 857.672 188.265 857.619 194.185C857.561 200.582 850.879 205.949 841.666 207.775Z" fill="#D58F21"/>
<path fill-rule="evenodd" clip-rule="evenodd" d="M805.551 174.837C809.097 169.532 810.062 163.357 807.542 158.148C805.344 153.605 800.925 150.685 795.612 149.672C803.909 148.146 811.238 150.254 813.816 155.583C816.602 161.341 812.995 169.114 805.551 174.837Z" fill="#D58F21"/>
<path fill-rule="evenodd" clip-rule="evenodd" d="M720.588 255.232C727.209 252.813 732.641 247.344 734.759 240.01C736.877 232.677 735.199 225.155 730.888 219.578C741.461 223.869 747.704 233.848 745.064 242.987C742.424 252.126 731.821 257.24 720.588 255.232Z" fill="#D58F21"/>
<path fill-rule="evenodd" clip-rule="evenodd" d="M752.916 227.203C758.37 222.736 761.695 215.783 761.277 208.161C760.86 200.539 756.796 193.991 750.887 190.146C762.284 190.712 771.468 198.076 771.988 207.575C772.508 217.074 764.183 225.396 752.916 227.203Z" fill="#D58F21"/>
<path fill-rule="evenodd" clip-rule="evenodd" d="M809.479 214.477C815.296 211.391 819.21 206.154 819.454 200.075C819.698 193.996 816.216 188.462 810.664 184.919C821.966 186.321 830.475 192.928 830.171 200.505C829.867 208.081 820.856 213.986 809.479 214.477Z" fill="#D58F21"/>
<path d="M684.865 201.837C684.865 205.711 681.725 208.852 677.851 208.852C673.977 208.852 670.836 205.711 670.836 201.837C670.836 197.963 673.977 194.822 677.851 194.822C681.725 194.822 684.865 197.963 684.865 201.837Z" fill="#D48F21"/>
<path d="M815.555 123.346C813.394 130.55 810.051 135.912 808.086 135.323C806.122 134.734 806.28 128.416 808.44 121.213C810.6 114.009 813.944 108.648 815.909 109.237C817.873 109.826 817.715 116.143 815.555 123.346Z" fill="#D48F21"/>
<path d="M840.172 283.605C836.438 279.983 834.421 276.006 835.666 274.723C836.911 273.439 840.947 275.335 844.681 278.957C848.415 282.579 850.432 286.556 849.187 287.839C847.942 289.122 843.906 287.227 840.172 283.605Z" fill="#C58116"/>
<path d="M828.381 290.851C825.235 285.72 823.921 280.803 825.445 279.868C826.97 278.934 830.756 282.335 833.901 287.466C837.047 292.597 838.362 297.515 836.838 298.449C835.313 299.384 831.527 295.982 828.381 290.851Z" fill="#C58116"/>
<path d="M831.04 126.269C827.567 134.565 823.218 140.649 821.326 139.857C819.434 139.065 820.716 131.697 824.188 123.401C827.661 115.105 832.01 109.021 833.902 109.813C835.794 110.605 834.513 117.973 831.04 126.269Z" fill="#D48F21"/>
<path d="M842.306 138.568C837.123 143.814 831.739 146.898 830.28 145.456C828.821 144.015 831.84 138.594 837.022 133.348C842.205 128.102 847.589 125.018 849.048 126.46C850.507 127.901 847.489 133.322 842.306 138.568Z" fill="#D48F21"/>
<path d="M673.312 228.246C673.312 232.12 666.477 235.26 658.045 235.26C649.613 235.26 642.777 232.12 642.777 228.246C642.777 224.372 649.613 221.231 658.045 221.231C666.477 221.231 673.312 224.372 673.312 228.246Z" fill="#D48F21"/>
<path d="M898.969 209.088C898.969 209.088 901.063 210.473 903.611 217.933C906.159 225.393 905.95 224.848 905.025 228.953C904.099 233.058 902.841 233.853 899.654 236.95C896.467 240.047 891.518 245.07 885.234 244.98C878.949 244.89 874.009 241.785 872.124 240.945C870.239 240.105 860.985 235.529 855.921 229.659C850.858 223.788 848.395 214.108 848.395 214.108L898.969 209.088Z" fill="url(#paint6_linear_2854_743)"/>
<path d="M948.234 146.179C948.234 146.179 961.102 140.62 972.876 139.542C984.65 138.464 985.321 136.957 993.445 141.029C1001.57 145.101 997.571 163.196 995.216 172.537C992.86 181.877 990.505 191.218 985.048 201.435C979.592 211.653 972.46 221.575 964.537 226.176C956.614 230.777 956.196 229.687 946.187 224.775C936.179 219.863 925.392 197.438 925.392 197.438L948.234 146.179Z" fill="url(#paint7_linear_2854_743)"/>
<path d="M970.767 160.291C962.12 162.766 954.653 163.174 954.089 161.202C953.524 159.23 960.076 155.625 968.723 153.15C977.369 150.675 984.836 150.267 985.401 152.239C985.965 154.211 979.413 157.816 970.767 160.291Z" fill="#C58116"/>
<path d="M967.084 176.741C957.488 174.135 950.145 170.417 950.682 168.438C951.22 166.459 959.435 166.967 969.031 169.574C978.627 172.18 985.97 175.898 985.433 177.877C984.895 179.856 976.68 179.348 967.084 176.741Z" fill="#C58116"/>
<path d="M960.066 191.34C951.988 185.541 946.41 179.489 947.606 177.823C948.802 176.157 956.32 179.507 964.398 185.306C972.475 191.105 978.054 197.157 976.858 198.823C975.661 200.489 968.144 197.139 960.066 191.34Z" fill="#C58116"/>
<path d="M948.822 204.566C943.976 195.883 941.499 188.033 943.29 187.034C945.081 186.034 950.462 192.263 955.308 200.946C960.154 209.629 962.63 217.478 960.839 218.478C959.048 219.477 953.668 213.249 948.822 204.566Z" fill="#C58116"/>
<path d="M911.371 50.9406C922.345 46.0971 924.833 46.4264 930.993 47.4467C937.153 48.4671 943.105 51.5809 945.626 53.2148C948.147 54.8486 957.299 65.8442 960.038 70.9968C962.778 76.1494 963.98 81.6943 964.464 86.1575C964.949 90.6208 965.088 95.4091 964.276 99.476C963.464 103.543 958.475 112.804 955.658 114.964C952.84 117.123 940.595 123.303 940.595 123.303L888.701 62.995C888.701 62.995 900.398 55.784 911.371 50.9406Z" fill="url(#paint8_linear_2854_743)"/>
<path d="M943.794 174.4C925.334 215.824 862.278 227.973 802.953 201.536C743.628 175.099 710.5 120.088 728.959 78.6643C747.419 37.2409 810.475 25.0919 869.8 51.5287C929.125 77.9655 962.253 132.977 943.794 174.4Z" fill="url(#paint9_linear_2854_743)"/>
<path fill-rule="evenodd" clip-rule="evenodd" d="M763.282 145.592C773.706 138.155 785.753 123.46 795.669 104.901C805.585 86.3419 811.104 68.1592 811.492 55.3599C819.962 63.5936 817.492 86.8255 805.133 109.957C792.774 133.089 774.835 148.056 763.282 145.592Z" fill="#D58F21"/>
<path fill-rule="evenodd" clip-rule="evenodd" d="M823.154 96.3939C829.256 94.5294 833.91 90.3583 835.255 84.7301C836.427 79.822 834.853 74.7649 831.38 70.6195C838.769 74.6873 843.11 80.9558 841.735 86.7128C840.25 92.934 832.54 96.6717 823.154 96.3939Z" fill="#D58F21"/>
<path fill-rule="evenodd" clip-rule="evenodd" d="M848.62 90.4721C855.045 89.7854 860.505 86.4394 862.894 80.9981C865.002 76.1958 864.29 70.737 861.451 65.95C868.82 71.3715 872.519 78.8308 869.996 84.5781C867.298 90.724 858.343 92.9571 848.62 90.4721Z" fill="#D58F21"/>
<path fill-rule="evenodd" clip-rule="evenodd" d="M811.734 177.12C818.095 177.617 823.952 175.438 827.262 170.691C830.149 166.551 830.533 161.267 828.816 156.137C834.209 162.627 835.958 170.052 832.571 174.909C828.912 180.156 820.368 180.814 811.734 177.12Z" fill="#D58F21"/>
<path fill-rule="evenodd" clip-rule="evenodd" d="M825.368 196.838C831.432 198.825 837.64 198.091 841.978 194.261C845.761 190.921 847.383 185.879 846.928 180.491C850.632 188.07 850.576 195.695 846.139 199.613C841.343 203.847 832.885 202.467 825.368 196.838Z" fill="#D58F21"/>
<path fill-rule="evenodd" clip-rule="evenodd" d="M849.671 166.623C855.92 165.334 860.942 161.613 862.804 156.134C864.428 151.356 863.33 146.173 860.257 141.723C867.238 146.46 870.979 153.106 869.075 158.711C867.017 164.768 858.991 167.773 849.671 166.623Z" fill="#D58F21"/>
<path fill-rule="evenodd" clip-rule="evenodd" d="M865.064 122.429C871.412 121.196 876.573 117.387 878.489 111.749C880.181 106.771 878.997 101.381 875.747 96.8521C883.617 101.62 887.989 108.768 885.962 114.736C883.794 121.114 875.009 124.108 865.064 122.429Z" fill="#D58F21"/>
<path fill-rule="evenodd" clip-rule="evenodd" d="M861.943 193.943C868.252 192.737 873.484 188.784 875.466 182.951C877.249 177.704 876.019 172.062 872.648 167.488C882.128 172.159 887.708 180.199 885.466 186.797C883.11 193.731 872.931 196.665 861.943 193.943Z" fill="#D58F21"/>
<path fill-rule="evenodd" clip-rule="evenodd" d="M893.095 183.356C899.443 182.703 904.814 179.506 907.217 174.241C909.313 169.65 908.742 164.384 906.132 159.647C912.602 165.062 915.656 172.051 913.197 177.436C910.541 183.256 902.253 185.438 893.095 183.356Z" fill="#D58F21"/>
<path fill-rule="evenodd" clip-rule="evenodd" d="M917.513 158.349C923.861 157.695 929.232 154.498 931.635 149.234C933.731 144.643 933.16 139.376 930.55 134.639C937.02 140.054 940.074 147.043 937.615 152.429C934.959 158.248 926.671 160.431 917.513 158.349Z" fill="#D58F21"/>
<path fill-rule="evenodd" clip-rule="evenodd" d="M897.936 113.564C903.334 110.162 906.729 104.915 906.548 99.1307C906.39 94.0868 903.542 89.6206 899.102 86.5331C907.301 88.5166 913.137 93.425 913.323 99.3414C913.523 105.735 907.065 111.367 897.936 113.564Z" fill="#D58F21"/>
<path fill-rule="evenodd" clip-rule="evenodd" d="M787.604 152.413C794.636 152.898 801.824 150.113 806.743 144.277C811.663 138.441 813.192 130.886 811.524 124.038C819.436 132.26 821.078 143.918 814.946 151.192C808.814 158.466 797.047 158.82 787.604 152.413Z" fill="#D58F21"/>
<path fill-rule="evenodd" clip-rule="evenodd" d="M828.545 139.97C835.344 138.11 841.211 133.112 843.932 125.98C846.653 118.848 845.606 111.211 841.773 105.295C851.956 110.45 857.349 120.916 853.957 129.805C850.565 138.694 839.572 142.907 828.545 139.97Z" fill="#D58F21"/>
<path fill-rule="evenodd" clip-rule="evenodd" d="M885.389 151.371C891.96 150.92 897.667 147.73 900.365 142.276C903.062 136.823 902.135 130.353 898.507 124.858C908.258 130.738 913.339 140.236 909.978 147.032C906.616 153.828 895.981 155.554 885.389 151.371Z" fill="#D58F21"/>
<path d="M776.709 89.1018C775.132 92.6405 770.985 94.2308 767.447 92.6539C763.908 91.0769 762.318 86.9299 763.895 83.3912C765.472 79.8526 769.619 78.2622 773.157 79.8392C776.696 81.4161 778.286 85.5631 776.709 89.1018Z" fill="#D48F21"/>
<path d="M928.03 70.6036C923.124 76.3041 917.888 79.8407 916.333 78.5029C914.778 77.1651 917.494 71.4595 922.4 65.7591C927.305 60.0586 932.542 56.522 934.096 57.8598C935.651 59.1976 932.935 64.9032 928.03 70.6036Z" fill="#D48F21"/>
<path d="M885.285 227.005C883.349 222.177 883.125 217.723 884.784 217.058C886.444 216.392 889.359 219.766 891.295 224.595C893.231 229.423 893.455 233.876 891.796 234.542C890.136 235.208 887.221 231.833 885.285 227.005Z" fill="#C58116"/>
<path d="M871.565 228.822C870.78 222.854 871.581 217.828 873.354 217.595C875.126 217.362 877.2 222.01 877.985 227.977C878.77 233.944 877.969 238.971 876.196 239.204C874.423 239.437 872.35 234.789 871.565 228.822Z" fill="#C58116"/>
<path d="M940.983 79.5763C934.434 85.7406 927.985 89.5271 926.579 88.0336C925.173 86.5401 929.343 80.3322 935.892 74.1679C942.441 68.0035 948.89 64.2171 950.295 65.7105C951.701 67.204 947.532 73.4119 940.983 79.5763Z" fill="#D48F21"/>
<path d="M946.264 95.3945C939.395 98.0765 933.221 98.7019 932.475 96.7914C931.729 94.8808 936.693 91.1578 943.562 88.4758C950.431 85.7938 956.605 85.1684 957.351 87.079C958.097 88.9895 953.133 92.7125 946.264 95.3945Z" fill="#D48F21"/>
<path d="M755.407 108.52C753.83 112.059 746.308 112.145 738.606 108.713C730.904 105.281 725.939 99.6301 727.516 96.0914C729.093 92.5527 736.615 92.4664 744.316 95.8985C752.018 99.3307 756.984 104.982 755.407 108.52Z" fill="#D48F21"/>
<rect x="61" y="188" width="463" height="88" rx="12" fill="#F4BB43"/>
<path d="M126.422 205.478H134.63V256.076H126.422V205.478ZM120.59 224.54H128.366V231.452H120.59V224.54ZM115.19 206.234H123.182V253.808H115.19V206.234ZM92.132 238.202H95.804C101.42 238.202 106.712 238.04 112.76 237.014L113.408 243.98C107.198 245.114 101.69 245.276 95.804 245.276H92.132V238.202ZM92.132 211.202H110.762V218.114H100.664V241.604H92.132V211.202ZM142.024 228.698H187.816V235.502H142.024V228.698ZM160.6 221.354H169.24V231.29H160.6V221.354ZM147.424 218.6H182.686V225.35H147.424V218.6ZM147.424 207.584H182.47V214.334H156.01V223.028H147.424V207.584ZM164.704 237.446C175.666 237.446 182.362 240.794 182.362 246.842C182.362 252.836 175.666 256.238 164.704 256.238C153.688 256.238 146.992 252.836 146.992 246.842C146.992 240.794 153.688 237.446 164.704 237.446ZM164.704 243.926C158.494 243.926 155.74 244.736 155.74 246.842C155.74 249.002 158.494 249.758 164.704 249.758C170.86 249.758 173.614 249.002 173.614 246.842C173.614 244.736 170.86 243.926 164.704 243.926ZM211.41 232.1H220.158V239.768H211.41V232.1ZM192.942 228.752H238.734V235.502H192.942V228.752ZM215.73 237.932C226.746 237.932 233.388 241.226 233.388 247.058C233.388 252.944 226.746 256.184 215.73 256.184C204.66 256.184 198.018 252.944 198.018 247.058C198.018 241.226 204.66 237.932 215.73 237.932ZM215.73 244.358C209.466 244.358 206.766 245.06 206.766 247.058C206.766 249.11 209.466 249.812 215.73 249.812C221.94 249.812 224.64 249.11 224.64 247.058C224.64 245.06 221.94 244.358 215.73 244.358ZM198.666 206.828H207.198V210.392H224.424V206.828H233.01V226.268H198.666V206.828ZM207.198 216.764V219.572H224.424V216.764H207.198ZM258.007 208.772C265.675 208.772 271.345 215.846 271.345 227.078C271.345 238.364 265.675 245.438 258.007 245.438C250.393 245.438 244.723 238.364 244.723 227.078C244.723 215.846 250.393 208.772 258.007 208.772ZM258.007 216.656C254.983 216.656 252.985 219.95 252.985 227.078C252.985 234.26 254.983 237.554 258.007 237.554C261.139 237.554 263.083 234.26 263.083 227.078C263.083 219.95 261.139 216.656 258.007 216.656ZM278.257 205.424H286.897V256.238H278.257V205.424ZM268.861 223.136H281.875V230.048H268.861V223.136ZM328.959 205.532H337.437V235.772H328.959V205.532ZM332.793 216.656H341.487V223.73H332.793V216.656ZM295.047 208.772H301.959V214.442H303.579V208.772H310.491V233.018H295.047V208.772ZM301.959 221.03V226.268H303.579V221.03H301.959ZM311.895 208.772H318.807V214.442H320.265V208.772H327.231V233.018H311.895V208.772ZM318.807 221.03V226.268H320.265V221.03H318.807ZM319.455 236.528C330.687 236.528 337.653 240.2 337.653 246.356C337.653 252.62 330.687 256.184 319.455 256.184C308.331 256.184 301.365 252.62 301.365 246.356C301.365 240.2 308.331 236.528 319.455 236.528ZM319.455 243.062C313.137 243.062 310.167 243.98 310.167 246.356C310.167 248.732 313.137 249.65 319.455 249.65C325.881 249.65 328.851 248.732 328.851 246.356C328.851 243.98 325.881 243.062 319.455 243.062ZM368.591 215.306H381.551V222.218H368.591V215.306ZM368.591 230.858H381.551V237.77H368.591V230.858ZM360.059 208.772C367.727 208.772 373.397 215.846 373.397 227.078C373.397 238.364 367.727 245.438 360.059 245.438C352.445 245.438 346.775 238.364 346.775 227.078C346.775 215.846 352.445 208.772 360.059 208.772ZM360.059 216.656C357.035 216.656 354.983 219.95 354.983 227.078C354.983 234.26 357.035 237.554 360.059 237.554C363.191 237.554 365.189 234.26 365.189 227.078C365.189 219.95 363.191 216.656 360.059 216.656ZM380.309 205.424H388.949V256.238H380.309V205.424ZM408.601 213.848H415.459V218.222C415.459 230.426 411.625 242.198 401.311 246.734L396.451 239.93C405.523 235.934 408.601 226.7 408.601 218.222V213.848ZM410.599 213.848H417.403V218.222C417.403 226.214 420.427 234.962 429.391 238.634L424.747 245.438C414.379 241.118 410.599 229.886 410.599 218.222V213.848ZM398.665 210.176H427.123V217.25H398.665V210.176ZM430.687 205.532H439.381V256.13H430.687V205.532ZM453.2 227.51H489.218V234.368H453.2V227.51ZM448.124 243.764H493.916V250.784H448.124V243.764ZM466.646 230.696H475.286V245.87H466.646V230.696ZM453.2 208.664H488.894V215.522H461.84V230.48H453.2V208.664Z" fill="#B54211"/>
<g filter="url(#filter1_d_2854_743)">
<path d="M499.302 203.165C497.995 204.201 496.227 202.651 497.083 201.22L509.443 180.548C509.924 179.745 511.015 179.573 511.719 180.19L518.234 185.901C518.938 186.518 518.91 187.623 518.177 188.204L499.302 203.165Z" fill="#454545"/>
<circle cx="521.937" cy="171.95" r="17.311" transform="rotate(13.6681 521.937 171.95)" fill="#E1325C"/>
<ellipse cx="517.216" cy="162.884" rx="3.8469" ry="3.8469" transform="rotate(13.6681 517.216 162.884)" fill="white" fill-opacity="0.6"/>
<path d="M524.679 181.022C526.623 182.554 529.244 182.534 531.613 180.888" stroke="black" stroke-width="1.8" stroke-linecap="round"/>
<ellipse cx="531.612" cy="170.839" rx="1.44259" ry="1.44259" transform="rotate(13.6681 531.612 170.839)" fill="black"/>
<ellipse cx="524.866" cy="174.147" rx="1.44259" ry="1.44259" transform="rotate(13.6681 524.866 174.147)" fill="black"/>
</g>
<defs>
<filter id="filter0_d_2854_743" x="648" y="29" width="317" height="316" filterUnits="userSpaceOnUse" color-interpolation-filters="sRGB">
<feFlood flood-opacity="0" result="BackgroundImageFix"/>
<feColorMatrix in="SourceAlpha" type="matrix" values="0 0 0 0 0 0 0 0 0 0 0 0 0 0 0 0 0 0 127 0" result="hardAlpha"/>
<feOffset dx="8" dy="8"/>
<feGaussianBlur stdDeviation="4"/>
<feComposite in2="hardAlpha" operator="out"/>
<feColorMatrix type="matrix" values="0 0 0 0 0 0 0 0 0 0 0 0 0 0 0 0 0 0 0.25 0"/>
<feBlend mode="normal" in2="BackgroundImageFix" result="effect1_dropShadow_2854_743"/>
<feBlend mode="normal" in="SourceGraphic" in2="effect1_dropShadow_2854_743" result="shape"/>
</filter>
<filter id="filter1_d_2854_743" x="485" y="149" width="64.8516" height="79.1821" filterUnits="userSpaceOnUse" color-interpolation-filters="sRGB">
<feFlood flood-opacity="0" result="BackgroundImageFix"/>
<feColorMatrix in="SourceAlpha" type="matrix" values="0 0 0 0 0 0 0 0 0 0 0 0 0 0 0 0 0 0 127 0" result="hardAlpha"/>
<feOffset dx="3" dy="4"/>
<feGaussianBlur stdDeviation="2"/>
<feComposite in2="hardAlpha" operator="out"/>
<feColorMatrix type="matrix" values="0 0 0 0 0 0 0 0 0 0 0 0 0 0 0 0 0 0 0.25 0"/>
<feBlend mode="normal" in2="BackgroundImageFix" result="effect1_dropShadow_2854_743"/>
<feBlend mode="normal" in="SourceGraphic" in2="effect1_dropShadow_2854_743" result="shape"/>
</filter>
<linearGradient id="paint0_linear_2854_743" x1="725" y1="47.5" x2="1072" y2="435" gradientUnits="userSpaceOnUse">
<stop stop-color="#F7F7F7"/>
<stop offset="1" stop-color="#F7F7F7" stop-opacity="0.4"/>
</linearGradient>
<linearGradient id="paint1_linear_2854_743" x1="716.5" y1="54.5" x2="911.5" y2="280.5" gradientUnits="userSpaceOnUse">
<stop stop-color="#E0E0E0"/>
<stop offset="1" stop-color="#D9D9D9" stop-opacity="0"/>
</linearGradient>
<linearGradient id="paint2_linear_2854_743" x1="830.273" y1="261.67" x2="830.111" y2="335.944" gradientUnits="userSpaceOnUse">
<stop stop-color="#EBA43F"/>
<stop offset="1" stop-color="#C97B1D"/>
</linearGradient>
<linearGradient id="paint3_linear_2854_743" x1="868.074" y1="245.989" x2="917.178" y2="202.25" gradientUnits="userSpaceOnUse">
<stop stop-color="#F8BE51"/>
<stop offset="1" stop-color="#E49535"/>
</linearGradient>
<linearGradient id="paint4_linear_2854_743" x1="793.345" y1="154.176" x2="866.412" y2="109.425" gradientUnits="userSpaceOnUse">
<stop stop-color="#FAC153"/>
<stop offset="1" stop-color="#EDA741"/>
</linearGradient>
<linearGradient id="paint5_linear_2854_743" x1="666.297" y1="156.448" x2="914.702" y2="319.025" gradientUnits="userSpaceOnUse">
<stop stop-color="#FFBB2E"/>
<stop offset="1" stop-color="#EFB783"/>
</linearGradient>
<linearGradient id="paint6_linear_2854_743" x1="885.172" y1="202.94" x2="854.791" y2="270.716" gradientUnits="userSpaceOnUse">
<stop stop-color="#EBA43F"/>
<stop offset="1" stop-color="#C97B1D"/>
</linearGradient>
<linearGradient id="paint7_linear_2854_743" x1="926.08" y1="204.004" x2="988.735" y2="184.039" gradientUnits="userSpaceOnUse">
<stop stop-color="#F8BE51"/>
<stop offset="1" stop-color="#E49535"/>
</linearGradient>
<linearGradient id="paint8_linear_2854_743" x1="895.2" y1="89.7235" x2="980.155" y2="78.5881" gradientUnits="userSpaceOnUse">
<stop stop-color="#FAC153"/>
<stop offset="1" stop-color="#EDA741"/>
</linearGradient>
<linearGradient id="paint9_linear_2854_743" x1="778.226" y1="40.0843" x2="938.946" y2="289.695" gradientUnits="userSpaceOnUse">
<stop stop-color="#FBC555"/>
<stop offset="1" stop-color="#D97F26"/>
</linearGradient>
</defs>
</svg>
