<svg width="40" height="40" viewBox="0 0 40 40" fill="none" xmlns="http://www.w3.org/2000/svg">
<path d="M11.25 14.6873C11.25 13.9 11.5628 13.1449 12.1195 12.5882C12.6762 12.0315 13.4313 11.7188 14.2186 11.7188H23.1243C23.9117 11.7188 24.6667 12.0315 25.2235 12.5882C25.7802 13.1449 26.0929 13.9 26.0929 14.6873V31.7567C26.0929 31.891 26.0564 32.0227 25.9874 32.1378C25.9184 32.253 25.8194 32.3472 25.7011 32.4106C25.5827 32.474 25.4494 32.504 25.3153 32.4976C25.1812 32.4912 25.0514 32.4485 24.9396 32.3742L18.6715 28.1959L12.4033 32.3742C12.2915 32.4485 12.1617 32.4912 12.0276 32.4976C11.8935 32.504 11.7602 32.474 11.6419 32.4106C11.5235 32.3472 11.4246 32.253 11.3556 32.1378C11.2865 32.0227 11.2501 31.891 11.25 31.7567V14.6873ZM14.2186 13.203C13.8249 13.203 13.4474 13.3594 13.169 13.6378C12.8907 13.9161 12.7343 14.2937 12.7343 14.6873V30.3704L18.2603 26.6864C18.3821 26.6053 18.5252 26.5621 18.6715 26.5621C18.8178 26.5621 18.9608 26.6053 19.0826 26.6864L24.6086 30.3704V14.6873C24.6086 14.2937 24.4523 13.9161 24.1739 13.6378C23.8955 13.3594 23.518 13.203 23.1243 13.203H14.2186Z" fill="#969696"/>
<path d="M14.6172 10.2343H26.0937C26.4874 10.2343 26.8649 10.3907 27.1433 10.669C27.4217 10.9474 27.578 11.3249 27.578 11.7186V29.1857L27.909 29.4054C28.0208 29.4798 28.1506 29.5225 28.2847 29.5289C28.4188 29.5353 28.5521 29.5052 28.6705 29.4418C28.7888 29.3785 28.8878 29.2842 28.9568 29.1691C29.0258 29.0539 29.0623 28.9222 29.0623 28.788V11.7186C29.0623 10.9313 28.7496 10.1762 28.1929 9.61948C27.6361 9.06276 26.8811 8.75 26.0937 8.75H17.188C16.6669 8.75001 16.155 8.88719 15.7037 9.14773C15.2525 9.40828 14.8777 9.78302 14.6172 10.2343Z" fill="#969696"/>
<circle cx="20" cy="20" r="19.5" stroke="#969696"/>
</svg>
