<svg width="32" height="32" viewBox="0 0 40 40" fill="none" xmlns="http://www.w3.org/2000/svg">
<circle cx="20" cy="20" r="20" fill="#FFC327"/>
<path d="M20.6885 9.19412L22.9094 14.424C23.2362 15.1936 23.9698 15.7096 24.8006 15.7748L30.5651 16.2275C31.2475 16.2811 31.4673 17.0769 30.994 17.4741L26.602 21.159C25.9612 21.6966 25.6759 22.5466 25.8742 23.3612L27.2161 28.8709C27.3565 29.4477 26.6987 29.9963 26.0988 29.6374L21.1635 26.6849C20.4485 26.2572 19.5515 26.2572 18.8365 26.6849L13.9012 29.6374C13.3013 29.9963 12.6435 29.4477 12.7839 28.8709L14.1258 23.3612C14.3241 22.5466 14.0388 21.6966 13.398 21.159L9.00602 17.4741C8.53267 17.0769 8.75252 16.2811 9.43486 16.2275L15.1994 15.7748C16.0302 15.7096 16.7638 15.1936 17.0906 14.424L19.3115 9.19412C19.5629 8.60196 20.4371 8.60196 20.6885 9.19412Z" fill="#FFC327" stroke="white" stroke-width="1.5"/>
</svg>
