<svg width="32" height="32" viewBox="0 0 32 32" fill="none" xmlns="http://www.w3.org/2000/svg">
<circle cx="16" cy="16" r="15.25" fill="white" stroke="#FFC327" stroke-width="1.5"/>
<path d="M16.4131 7.41432L18.1899 11.5982C18.4736 12.2665 19.1099 12.7133 19.8291 12.7698L24.4408 13.1319C24.8583 13.1647 24.9707 13.6369 24.6992 13.8647L21.1856 16.8127C20.6298 17.2789 20.3816 18.017 20.554 18.7249L21.6275 23.1326C21.7063 23.4563 21.3297 23.8049 20.9564 23.5816L17.0082 21.2196C16.3888 20.849 15.612 20.849 14.9926 21.2196L11.0444 23.5816C10.6711 23.8049 10.2944 23.4563 10.3733 23.1326L11.4467 18.7249C11.6191 18.017 11.3709 17.2789 10.8152 16.8126L7.30162 13.8647C7.03004 13.6369 7.1425 13.1647 7.56002 13.1319L12.1717 12.7698C12.8909 12.7133 13.5271 12.2665 13.8109 11.5982L15.5876 7.41432C15.7371 7.06241 16.2637 7.06242 16.4131 7.41432Z" stroke="#FFC327" stroke-width="1.5"/>
</svg>
