<svg width="30" height="40" viewBox="0 0 30 40" fill="none" xmlns="http://www.w3.org/2000/svg">
<g clip-path="url(#clip0_2197_8218)">
<path d="M0.67325 34.472H7.20925V35.008H0.67325V34.472ZM1.46525 35.656H6.37725V37.312H2.13725V38.192H1.48125V36.824H5.72125V36.168H1.46525V35.656ZM1.48125 38.032H6.59325V38.544H1.48125V38.032ZM3.56125 31.888H4.14525V32.12C4.14525 33.232 2.78525 33.96 1.24125 34.104L1.02525 33.6C2.36125 33.48 3.56125 32.896 3.56125 32.12V31.888ZM3.75325 31.888H4.32925V32.12C4.32925 32.896 5.52925 33.48 6.86525 33.6L6.64925 34.104C5.11325 33.96 3.75325 33.232 3.75325 32.12V31.888ZM1.27325 31.664H6.62525V32.192H1.27325V31.664ZM11.0246 32.168H11.6726C11.6726 34.232 10.7766 36.08 8.39263 37.256L8.04063 36.736C10.0886 35.72 11.0246 34.184 11.0246 32.28V32.168ZM8.35263 32.168H11.3526V32.712H8.35263V32.168ZM13.3206 31.384H13.9846V38.616H13.3206V31.384ZM11.4086 33.368H13.4566V33.904H11.4086V33.368ZM11.3286 35.312H13.3766V35.856H11.3286V35.312ZM17.2 32.584H17.744V32.896C17.744 34.128 16.928 35.128 15.712 35.512L15.4 34.992C16.472 34.664 17.2 33.84 17.2 32.896V32.584ZM17.32 32.584H17.864V32.896C17.864 33.76 18.568 34.544 19.632 34.856L19.32 35.368C18.112 35.008 17.32 34.048 17.32 32.896V32.584ZM15.6 32.232H19.456V32.768H15.6V32.232ZM17.2 31.36H17.864V32.456H17.2V31.36ZM20.344 31.392H21.008V35.592H20.344V31.392ZM20.824 33.176H22.08V33.728H20.824V33.176ZM18.416 36.192H18.984V36.384C18.984 37.52 17.784 38.36 16.368 38.6L16.112 38.088C17.36 37.896 18.416 37.192 18.416 36.384V36.192ZM18.544 36.192H19.112V36.384C19.112 37.176 20.184 37.896 21.408 38.096L21.16 38.608C19.744 38.368 18.544 37.496 18.544 36.384V36.192ZM16.392 35.984H21.136V36.52H16.392V35.984ZM28.0234 31.392H28.6874V38.624H28.0234V31.392ZM25.9034 32.168H26.5594C26.5594 34.264 25.6154 36.096 23.1994 37.28L22.8474 36.744C24.9354 35.736 25.9034 34.2 25.9034 32.28V32.168ZM23.1754 32.168H26.1914V32.712H23.1754V32.168Z" fill="#969696"/>
<path d="M19.5594 22.75L19.5619 22.75C19.8215 22.7498 20.0786 22.6903 20.3127 22.5761C20.5459 22.4623 20.7496 22.298 20.9111 22.0969C21.0726 21.896 21.1885 21.6628 21.2529 21.4144C21.3172 21.1659 21.329 20.9064 21.2876 20.6533L21.2875 20.6532L20.3748 15.0763L24.2335 11.1325L24.2339 11.1321C24.4649 10.8957 24.6247 10.6 24.6999 10.2803C24.775 9.9606 24.7635 9.6256 24.6662 9.3118C24.5689 8.99786 24.3885 8.71402 24.1406 8.49475C23.8925 8.27519 23.5868 8.12952 23.257 8.07899L23.2563 8.0789L17.9527 7.27097L15.575 2.21837L15.5636 2.19419L15.5506 2.17087C15.3964 1.89607 15.1741 1.66389 14.9021 1.50075C14.6298 1.33743 14.3187 1.25 13.9999 1.25C13.6811 1.25 13.37 1.33743 13.0977 1.50075C12.8257 1.66389 12.6034 1.89607 12.4492 2.17087L12.4362 2.19414L12.4248 2.21827L10.0461 7.27095L4.74245 8.0789L4.7418 8.07899C4.41202 8.12952 4.10633 8.27519 3.85816 8.49475C3.61032 8.71402 3.42985 8.99786 3.33256 9.31181C3.23531 9.6256 3.22381 9.9606 3.29893 10.2803C3.37408 10.6 3.53394 10.8957 3.76489 11.1321L3.76531 11.1325L7.62402 15.0764L6.71222 20.6533L6.71202 20.6545C6.65965 20.9783 6.69435 21.3115 6.81345 21.6176C6.93263 21.9239 7.13295 22.1942 7.39636 22.3947C7.66013 22.5956 7.97592 22.7178 8.30848 22.7432C8.64114 22.7686 8.9722 22.6957 9.2635 22.5357L9.26449 22.5352L13.9994 19.9248L18.7327 22.5343C18.7329 22.5344 18.7332 22.5346 18.7334 22.5347C18.986 22.6746 19.2696 22.7492 19.5594 22.75Z" stroke="#969696" stroke-width="1.5"/>
</g>
<defs>
<clipPath id="clip0_2197_8218">
<rect width="30" height="40" fill="white"/>
</clipPath>
</defs>
</svg>
