<svg width="30" height="40" viewBox="0 0 30 40" fill="none" xmlns="http://www.w3.org/2000/svg">
<path d="M5.93699 9.58006L5.93704 9.58002L13.937 3.60174C13.937 3.60173 13.937 3.60171 13.937 3.6017C14.2443 3.37208 14.6183 3.25004 15 3.25004C15.3817 3.25004 15.7557 3.37208 16.063 3.6017C16.063 3.60171 16.063 3.60173 16.063 3.60174L24.063 9.58002L24.063 9.58006C24.2738 9.73764 24.447 9.9414 24.567 10.1774C24.6871 10.4136 24.7502 10.6747 24.75 10.9404M5.93699 9.58006L24.75 10.9404M5.93699 9.58006C5.72616 9.73764 5.55301 9.9414 5.43299 10.1774C5.31298 10.4134 5.24989 10.6743 5.25 10.9399C5.25 10.9399 5.25 10.94 5.25 10.9401M5.93699 9.58006L5.25 10.9401M24.75 10.9404V21.0392C24.75 21.5028 24.558 21.9411 24.2267 22.2594C23.8965 22.5768 23.4547 22.75 23 22.75H7C6.54532 22.75 6.10354 22.5768 5.77326 22.2594C5.44196 21.9411 5.25 21.5028 5.25 21.0392V10.9401M24.75 10.9404L5.25 10.9401" stroke="#969696" stroke-width="1.5"/>
<path d="M12.5123 36.464H17.4483V38.528H12.5123V36.464ZM16.8003 36.976H13.1683V38.024H16.8003V36.976ZM12.0563 31.984H17.8723V32.504H12.0563V31.984ZM14.9843 32.792C16.4723 32.792 17.3203 33.144 17.3203 33.816C17.3203 34.488 16.4723 34.84 14.9843 34.84C13.4883 34.84 12.6483 34.488 12.6483 33.816C12.6483 33.144 13.4883 32.792 14.9843 32.792ZM14.9843 33.256C13.9363 33.256 13.3523 33.456 13.3523 33.816C13.3523 34.176 13.9363 34.376 14.9843 34.376C16.0243 34.376 16.6083 34.176 16.6083 33.816C16.6083 33.456 16.0243 33.256 14.9843 33.256ZM14.6563 31.288H15.3123V32.32H14.6563V31.288ZM11.7123 35.392H18.2483V35.912H11.7123V35.392ZM14.6563 34.68H15.3123V35.68H14.6563V34.68Z" fill="#969696"/>
</svg>
