<svg width="40" height="40" viewBox="0 0 80 80" fill="none" xmlns="http://www.w3.org/2000/svg">
<g clip-path="url(#clip0_2308_1459)">
<rect width="80" height="80" rx="40" fill="#969696"/>
<path d="M50.0283 22.5816C47.2917 19.627 43.4696 18 39.2508 18C35.0096 18 31.1747 19.6172 28.4508 22.5534C25.6974 25.522 24.3558 29.5566 24.6708 33.9131C25.2952 42.5081 31.8356 49.5 39.2508 49.5C46.666 49.5 53.1952 42.5095 53.8294 33.9159C54.1486 29.5987 52.7986 25.5727 50.0283 22.5816ZM64.0008 81H14.5008C13.8529 81.0084 13.2113 80.8723 12.6226 80.6016C12.0339 80.3308 11.5129 79.9322 11.0977 79.4348C10.1836 78.3422 9.81518 76.8502 10.088 75.3413C11.2749 68.7572 14.9789 63.2264 20.8008 59.3438C25.973 55.897 32.5247 54 39.2508 54C45.9769 54 52.5286 55.8984 57.7008 59.3438C63.5227 63.225 67.2267 68.7558 68.4136 75.3398C68.6864 76.8488 68.318 78.3408 67.4039 79.4334C66.9888 79.9311 66.4679 80.3299 65.8792 80.6009C65.2905 80.8719 64.6488 81.0083 64.0008 81Z" fill="#767676"/>
</g>
<defs>
<clipPath id="clip0_2308_1459">
<rect width="80" height="80" rx="40" fill="white"/>
</clipPath>
</defs>
</svg>
