<svg width="30" height="40" viewBox="0 0 30 40" fill="none" xmlns="http://www.w3.org/2000/svg">
<path d="M5 9H25M5 9V21.5C5 22.163 5.26339 22.7989 5.73223 23.2678C6.20107 23.7366 6.83696 24 7.5 24H22.5C23.163 24 23.7989 23.7366 24.2678 23.2678C24.7366 22.7989 25 22.163 25 21.5V9M5 9L10 4H20L25 9M10 14H15" stroke="#969696" stroke-width="1.5" stroke-linecap="round" stroke-linejoin="round"/>
<path d="M4.36094 37.152H10.9129V37.704H4.36094V37.152ZM7.28894 35.424H7.95294V37.312H7.28894V35.424ZM5.12894 31.904H5.78494V33.192H9.47294V31.904H10.1289V35.6H5.12894V31.904ZM5.78494 33.728V35.056H9.47294V33.728H5.78494ZM12.1043 31.952H15.3043V32.496H12.1043V31.952ZM13.1923 33.568H13.8483V35.376H13.1923V33.568ZM15.0403 31.952H15.6963V32.336C15.6963 32.808 15.6963 33.528 15.5043 34.48L14.8563 34.408C15.0403 33.456 15.0403 32.8 15.0403 32.336V31.952ZM16.6803 31.392H17.3443V36.84H16.6803V31.392ZM17.0403 33.744H18.3763V34.296H17.0403V33.744ZM12.7763 37.92H17.5763V38.464H12.7763V37.92ZM12.7763 36.336H13.4323V38.088H12.7763V36.336ZM11.7363 35.688L11.6643 35.144C12.9523 35.144 14.7283 35.112 16.1923 34.912L16.2403 35.392C14.7363 35.656 13.0083 35.688 11.7363 35.688ZM24.0237 31.392H24.6877V35.744H24.0237V31.392ZM24.5037 33.312H25.7597V33.864H24.5037V33.312ZM20.1437 36.152H24.6877V38.528H20.1437V36.152ZM24.0397 36.688H20.7917V37.992H24.0397V36.688ZM19.0957 32.152H23.3677V32.696H19.0957V32.152ZM21.2317 33.048C22.2637 33.048 22.9597 33.56 22.9597 34.344C22.9597 35.128 22.2637 35.624 21.2317 35.624C20.1917 35.624 19.4957 35.128 19.4957 34.344C19.4957 33.56 20.1917 33.048 21.2317 33.048ZM21.2317 33.56C20.5677 33.56 20.1277 33.864 20.1277 34.344C20.1277 34.816 20.5677 35.12 21.2317 35.12C21.8797 35.12 22.3277 34.816 22.3277 34.344C22.3277 33.864 21.8797 33.56 21.2317 33.56ZM20.8957 31.328H21.5597V32.432H20.8957V31.328Z" fill="#969696"/>
</svg>
