<svg width="173" height="36" viewBox="0 0 173 36" fill="none" xmlns="http://www.w3.org/2000/svg">
<path d="M71.79 10.2V25.95H67.05V19.89H66.15V25.35H61.41V10.2H66.15V15.69H67.05V10.2H71.79ZM56.19 14.7H50.4V10.5H60.3L60 18.51H56.19V14.7ZM55.14 16.44V19.71H60.51V23.85H49.8V19.71H51.3V16.44H55.14ZM71.79 28.5V33H51.39V25.05H57.03V28.5H71.79Z" fill="#454545"/>
<path d="M82.2462 19.86C81.4062 20.7 80.4362 21.35 79.3362 21.81C78.2562 22.27 77.1362 22.5 75.9762 22.5L75.0762 18C76.9162 18 78.1762 17.3 78.8562 15.9H75.4962V11.4H79.4262V9.6H85.0662V11.4H88.9962V15.9H85.6062C86.2862 17.3 87.5462 18 89.3862 18L88.4862 22.5C87.3262 22.5 86.1962 22.27 85.0962 21.81C84.0162 21.35 83.0662 20.7 82.2462 19.86ZM96.4962 14.1H98.7462V18.6H96.4962V22.56H90.8862V10.2H96.4962V14.1ZM94.3362 23.25V24H96.7362V27.3H86.3562V24H88.6962V23.25H94.3362ZM81.7662 23.7V28.47H86.0562V32.97L76.1262 33V23.7H81.7662ZM91.8162 27.6C93.2962 27.6 94.4362 27.85 95.2362 28.35C96.0362 28.85 96.4362 29.55 96.4362 30.45C96.4362 31.35 96.0362 32.05 95.2362 32.55C94.4362 33.05 93.2962 33.3 91.8162 33.3H91.2162C89.7362 33.3 88.6062 33.05 87.8262 32.55C87.0462 32.05 86.6562 31.35 86.6562 30.45C86.6562 29.55 87.0462 28.85 87.8262 28.35C88.6062 27.85 89.7362 27.6 91.2162 27.6H91.8162ZM91.5162 30.96C91.7362 30.96 91.9062 30.92 92.0262 30.84C92.1462 30.74 92.2062 30.61 92.2062 30.45C92.2062 30.29 92.1462 30.16 92.0262 30.06C91.9062 29.96 91.7362 29.91 91.5162 29.91C91.3162 29.91 91.1562 29.96 91.0362 30.06C90.9162 30.16 90.8562 30.29 90.8562 30.45C90.8562 30.79 91.0762 30.96 91.5162 30.96Z" fill="#454545"/>
<path d="M118.092 17.34H104.652C103.592 17.34 102.742 17.03 102.102 16.41C101.462 15.77 101.142 14.93 101.142 13.89C101.142 12.85 101.462 12.02 102.102 11.4C102.742 10.76 103.592 10.44 104.652 10.44H118.092C119.152 10.44 120.002 10.76 120.642 11.4C121.282 12.02 121.602 12.85 121.602 13.89C121.602 14.93 121.282 15.77 120.642 16.41C120.002 17.03 119.152 17.34 118.092 17.34ZM107.292 14.4H115.452C115.612 14.4 115.732 14.35 115.812 14.25C115.912 14.15 115.962 14.03 115.962 13.89C115.962 13.73 115.912 13.61 115.812 13.53C115.732 13.43 115.612 13.38 115.452 13.38H107.292C107.152 13.38 107.032 13.43 106.932 13.53C106.832 13.61 106.782 13.73 106.782 13.89C106.782 14.03 106.832 14.15 106.932 14.25C107.032 14.35 107.152 14.4 107.292 14.4ZM100.542 21.54V18.27H122.202V21.54H100.542ZM121.602 29.19H106.782V30.03H121.902V33H101.142V26.22H115.962V25.35H101.142V22.41H121.602V29.19Z" fill="#454545"/>
<path d="M141.156 10.14H146.796V33H141.156V10.14ZM135.156 15.87C135.156 18.25 135.356 20.3 135.756 22.02C136.156 23.72 136.706 25.03 137.406 25.95C138.106 26.85 138.906 27.35 139.806 27.45L138.606 32.1C137.526 32.02 136.446 31.63 135.366 30.93C134.286 30.23 133.336 29.2 132.516 27.84C131.676 29.2 130.716 30.23 129.636 30.93C128.556 31.63 127.476 32.02 126.396 32.1L125.196 27.45C126.796 27.31 127.966 26.28 128.706 24.36C129.466 22.44 129.846 19.61 129.846 15.87V15H125.796V10.5H139.176V15H135.156V15.87Z" fill="#454545"/>
<path d="M156.645 18.87H171.405V23.37H151.005V10.44H171.405V14.94H156.645V18.87ZM164.325 27.6H172.005V32.1H150.405V27.6H158.685V24.27H164.325V27.6Z" fill="#454545"/>
<path d="M28.7834 6.63337L37.398 9.66871C37.7587 9.79583 38 10.1363 38 10.5182V35.0984C38 35.7265 37.3722 36.1618 36.7826 35.9425L28.168 32.7385C27.8149 32.6072 27.5807 32.2706 27.5807 31.8944V7.48286C27.5807 6.86132 28.1963 6.42651 28.7834 6.63337Z" fill="#454545"/>
<path d="M1.20268 6.42941L9.81727 9.46476C10.178 9.59187 10.4193 9.9323 10.4193 10.3142V34.8944C10.4193 35.5225 9.79155 35.9578 9.20193 35.7386L0.587336 32.5346C0.234194 32.4032 0 32.0666 0 31.6904V7.2789C0 6.65736 0.615589 6.22255 1.20268 6.42941Z" fill="#454545"/>
<path d="M23.1092 6.42941L14.4946 9.46476C14.1338 9.59187 13.8925 9.9323 13.8925 10.3142V34.8944C13.8925 35.5225 14.5203 35.9578 15.1099 35.7386L23.7245 32.5346C24.0777 32.4032 24.3119 32.0666 24.3119 31.6904V7.2789C24.3119 6.65736 23.6963 6.22255 23.1092 6.42941Z" fill="#454545"/>
<path d="M17.3655 29.1201C16.7488 29.91 15.495 29.2564 15.7918 28.2998L19.6189 15.9639C19.7856 15.4267 20.3992 15.1716 20.8985 15.4319L25.0231 17.5818C25.5225 17.8421 25.6635 18.4905 25.3172 18.9341L17.3655 29.1201Z" fill="#BCBCBC"/>
<path d="M34.8912 9.609C34.8912 14.9159 30.5818 19.218 25.266 19.218C19.9502 19.218 15.6409 14.9159 15.6409 9.609C15.6409 4.30209 19.9502 0 25.266 0C30.5818 0 34.8912 4.30209 34.8912 9.609Z" fill="#E1325C"/>
<path d="M23.6618 5.33833C23.6618 6.51764 22.7042 7.47366 21.5229 7.47366C20.3416 7.47366 19.384 6.51764 19.384 5.33833C19.384 4.15902 20.3416 3.203 21.5229 3.203C22.7042 3.203 23.6618 4.15902 23.6618 5.33833Z" fill="white" fill-opacity="0.6"/>
<path d="M31.1481 7.74058C31.1481 8.18282 30.7889 8.54133 30.346 8.54133C29.903 8.54133 29.5439 8.18282 29.5439 7.74058C29.5439 7.29834 29.903 6.93983 30.346 6.93983C30.7889 6.93983 31.1481 7.29834 31.1481 7.74058Z" fill="black"/>
<path d="M27.9397 10.4097C27.9397 10.852 27.5806 11.2105 27.1376 11.2105C26.6946 11.2105 26.3355 10.852 26.3355 10.4097C26.3355 9.9675 26.6946 9.609 27.1376 9.609C27.5806 9.609 27.9397 9.9675 27.9397 10.4097Z" fill="black"/>
<path fill-rule="evenodd" clip-rule="evenodd" d="M32.0269 12.7557C32.2508 12.9536 32.2715 13.2952 32.0732 13.5187C30.88 14.8635 29.2186 15.3208 27.7142 14.6335C27.4423 14.5093 27.3227 14.1885 27.4471 13.9171C27.5716 13.6457 27.8928 13.5263 28.1647 13.6505C29.1627 14.1064 30.3285 13.8547 31.2627 12.8019C31.4609 12.5784 31.8031 12.5577 32.0269 12.7557Z" fill="black"/>
</svg>
