<svg width="24" height="24" viewBox="0 0 32 32" fill="none" xmlns="http://www.w3.org/2000/svg">
<path d="M29.3814 17.0559C29.1204 16.7639 28.9764 16.3886 28.9764 16C28.9764 15.6114 29.1204 15.2361 29.3814 14.9441L31.4658 12.6405C31.6954 12.3888 31.8381 12.0721 31.8732 11.7358C31.9083 11.3995 31.8341 11.061 31.6612 10.7687L28.4044 5.23346C28.2333 4.94154 27.9727 4.71014 27.6598 4.57225C27.347 4.43437 26.9978 4.39703 26.6621 4.46557L23.6007 5.07349C23.2112 5.15256 22.8057 5.08883 22.4607 4.89431C22.1157 4.69979 21.8551 4.38795 21.7281 4.01763L20.7348 1.09003C20.6256 0.772277 20.4174 0.496292 20.1398 0.301082C19.8622 0.105872 19.5292 0.0013099 19.1878 0.00217564H12.6744C12.3193 -0.0160331 11.9679 0.0804472 11.6738 0.276881C11.3798 0.473314 11.1593 0.758903 11.046 1.09003L10.1341 4.01763C10.0071 4.38795 9.74649 4.69979 9.40151 4.89431C9.05652 5.08883 8.651 5.15256 8.26146 5.07349L5.11871 4.46557C4.80044 4.42138 4.47599 4.47072 4.18621 4.60737C3.89644 4.74402 3.65431 4.96187 3.49033 5.23346L0.233591 10.7687C0.0563596 11.0577 -0.0233296 11.3944 0.00591676 11.7305C0.0351631 12.0667 0.171847 12.3852 0.396428 12.6405L2.46446 14.9441C2.72552 15.2361 2.86949 15.6114 2.86949 16C2.86949 16.3886 2.72552 16.7639 2.46446 17.0559L0.396428 19.3595C0.171847 19.6148 0.0351631 19.9333 0.00591676 20.2695C-0.0233296 20.6056 0.0563596 20.9423 0.233591 21.2313L3.49033 26.7665C3.66147 27.0585 3.92205 27.2899 4.23491 27.4277C4.54778 27.5656 4.89696 27.603 5.23269 27.5344L8.29403 26.9265C8.68357 26.8474 9.08909 26.9112 9.43408 27.1057C9.77906 27.3002 10.0396 27.612 10.1667 27.9824L11.16 30.91C11.2733 31.2411 11.4938 31.5267 11.7878 31.7231C12.0818 31.9196 12.4332 32.016 12.7883 31.9978H19.3018C19.6432 31.9987 19.9762 31.8941 20.2538 31.6989C20.5314 31.5037 20.7395 31.2277 20.8488 30.91L21.8421 27.9824C21.9691 27.612 22.2297 27.3002 22.5747 27.1057C22.9197 26.9112 23.3252 26.8474 23.7147 26.9265L26.7761 27.5344C27.1118 27.603 27.461 27.5656 27.7738 27.4277C28.0867 27.2899 28.3473 27.0585 28.5184 26.7665L31.7752 21.2313C31.948 20.939 32.0223 20.6005 31.9872 20.2642C31.952 19.9279 31.8094 19.6112 31.5797 19.3595L29.3814 17.0559ZM26.9552 19.1996L28.2579 20.6394L26.1736 24.1909L24.2521 23.8069C23.0793 23.5714 21.8593 23.7671 20.8237 24.3569C19.7881 24.9468 19.009 25.8896 18.6342 27.0065L18.0154 28.7983H13.8468L13.2606 26.9745C12.8858 25.8576 12.1067 24.9148 11.0711 24.325C10.0355 23.7351 8.81547 23.5394 7.64268 23.7749L5.7212 24.1589L3.60432 20.6234L4.90702 19.1836C5.7081 18.3037 6.15098 17.1645 6.15098 15.984C6.15098 14.8035 5.7081 13.6644 4.90702 12.7844L3.60432 11.3446L5.68864 7.82511L7.61012 8.20906C8.7829 8.44458 10.0029 8.24886 11.0385 7.65905C12.0741 7.06924 12.8532 6.1264 13.228 5.00949L13.8468 3.20174H18.0154L18.6342 5.02549C19.009 6.14239 19.7881 7.08524 20.8237 7.67505C21.8593 8.26486 23.0793 8.46058 24.2521 8.22506L26.1736 7.84111L28.2579 11.3926L26.9552 12.8324C26.1631 13.7103 25.7257 14.8428 25.7257 16.016C25.7257 17.1891 26.1631 18.3217 26.9552 19.1996ZM15.9311 9.60087C14.6428 9.60087 13.3835 9.97617 12.3124 10.6793C11.2413 11.3825 10.4064 12.3819 9.91342 13.5512C9.42043 14.7204 9.29144 16.0071 9.54276 17.2484C9.79409 18.4897 10.4144 19.6299 11.3254 20.5249C12.2363 21.4198 13.3969 22.0293 14.6604 22.2762C15.9239 22.5231 17.2335 22.3964 18.4237 21.912C19.6139 21.4277 20.6311 20.6075 21.3469 19.5552C22.0626 18.5028 22.4446 17.2656 22.4446 16C22.4446 14.3028 21.7583 12.6752 20.5368 11.4751C19.3153 10.2751 17.6586 9.60087 15.9311 9.60087ZM15.9311 19.1996C15.287 19.1996 14.6573 19.0119 14.1217 18.6603C13.5862 18.3088 13.1688 17.8091 12.9223 17.2244C12.6758 16.6398 12.6113 15.9965 12.7369 15.3758C12.8626 14.7551 13.1728 14.185 13.6282 13.7376C14.0837 13.2901 14.664 12.9854 15.2957 12.8619C15.9275 12.7385 16.5823 12.8018 17.1774 13.044C17.7725 13.2862 18.2811 13.6963 18.639 14.2224C18.9968 14.7486 19.1878 15.3672 19.1878 16C19.1878 16.8486 18.8447 17.6624 18.234 18.2624C17.6232 18.8625 16.7948 19.1996 15.9311 19.1996Z" fill="black"/>
</svg>
