<svg width="37" height="43" viewBox="0 0 37 43" fill="none" xmlns="http://www.w3.org/2000/svg">
<circle cx="19" cy="10" r="4" fill="#767676"/>
<circle cx="19" cy="12" r="11.25" stroke="#767676" stroke-width="1.5"/>
<path fill-rule="evenodd" clip-rule="evenodd" d="M25 20.618C23.2992 21.8043 21.2309 22.5 19 22.5C16.7691 22.5 14.7008 21.8043 13 20.618V17C13 15.8954 13.8954 15 15 15H23C24.1046 15 25 15.8954 25 17V20.618Z" fill="#767676"/>
<path d="M9.08591 30.088H10.0459V40.936H9.08591V30.088ZM7.26191 34.504H9.34991V35.32H7.26191V34.504ZM6.62591 30.328H7.56191V40.384H6.62591V30.328ZM1.36991 31.396H2.36591V37.66H1.36991V31.396ZM1.36991 37.264H2.06591C3.18191 37.264 4.42991 37.192 5.84591 36.916L5.95391 37.78C4.47791 38.068 3.22991 38.128 2.06591 38.128H1.36991V37.264ZM21.052 32.896H23.5V33.724H21.052V32.896ZM23.188 30.088H24.184V36.556H23.188V30.088ZM20.62 36.88C22.852 36.88 24.232 37.636 24.232 38.908C24.232 40.192 22.852 40.924 20.62 40.924C18.376 40.924 16.996 40.192 16.996 38.908C16.996 37.636 18.376 36.88 20.62 36.88ZM20.62 37.66C18.988 37.66 17.992 38.116 17.992 38.908C17.992 39.688 18.988 40.144 20.62 40.144C22.252 40.144 23.248 39.688 23.248 38.908C23.248 38.116 22.252 37.66 20.62 37.66ZM18.028 31.18H18.844V32.056C18.844 34.06 17.62 35.776 15.82 36.448L15.304 35.656C16.912 35.068 18.028 33.616 18.028 32.056V31.18ZM18.22 31.18H19.024V32.056C19.024 33.46 20.08 34.804 21.652 35.356L21.148 36.148C19.384 35.512 18.22 33.88 18.22 32.056V31.18ZM15.604 30.88H21.4V31.696H15.604V30.88ZM26.307 38.728H36.135V39.556H26.307V38.728ZM30.699 36.136H31.695V38.968H30.699V36.136ZM27.459 30.856H28.443V32.788H33.975V30.856H34.959V36.4H27.459V30.856ZM28.443 33.592V35.584H33.975V33.592H28.443Z" fill="#767676"/>
</svg>
