<svg width="24" height="24" viewBox="0 0 24 24" fill="none" xmlns="http://www.w3.org/2000/svg">
<circle cx="12" cy="10" r="3.5" fill="#E1325C" stroke="#E1325C"/>
<circle cx="12" cy="12" r="11.25" stroke="#E1325C" stroke-width="1.5"/>
<mask id="path-3-inside-1_2471_8778" fill="white">
<path fill-rule="evenodd" clip-rule="evenodd" d="M18 20.618C16.2992 21.8043 14.2309 22.5 12 22.5C9.76913 22.5 7.70075 21.8043 6 20.618V17C6 15.8954 6.89543 15 8 15H16C17.1046 15 18 15.8954 18 17V20.618Z"/>
</mask>
<path fill-rule="evenodd" clip-rule="evenodd" d="M18 20.618C16.2992 21.8043 14.2309 22.5 12 22.5C9.76913 22.5 7.70075 21.8043 6 20.618V17C6 15.8954 6.89543 15 8 15H16C17.1046 15 18 15.8954 18 17V20.618Z" fill="#E1325C"/>
<path d="M18 20.618L18.8581 21.8482L19.5 21.4005V20.618H18ZM6 20.618H4.5V21.4005L5.14185 21.8482L6 20.618ZM12 24C14.5476 24 16.9138 23.2044 18.8581 21.8482L17.1419 19.3877C15.6847 20.4041 13.9142 21 12 21V24ZM5.14185 21.8482C7.08617 23.2044 9.45242 24 12 24V21C10.0858 21 8.31533 20.4041 6.85815 19.3877L5.14185 21.8482ZM7.5 20.618V17H4.5V20.618H7.5ZM7.5 17C7.5 16.7239 7.72386 16.5 8 16.5V13.5C6.067 13.5 4.5 15.067 4.5 17H7.5ZM8 16.5H16V13.5H8V16.5ZM16 16.5C16.2761 16.5 16.5 16.7239 16.5 17H19.5C19.5 15.067 17.933 13.5 16 13.5V16.5ZM16.5 17V20.618H19.5V17H16.5Z" fill="#E1325C" mask="url(#path-3-inside-1_2471_8778)"/>
</svg>
