<svg width="26" height="26" viewBox="0 0 26 26" fill="none" xmlns="http://www.w3.org/2000/svg">
<path d="M9 5.93884V24.751M17 1V20.0008M1 8.7496C1 6.74909 1 5.75019 1.524 5.1666C1.70945 4.95899 1.93506 4.79264 2.18667 4.678C2.896 4.35771 3.828 4.67393 5.692 5.30639C7.11467 5.78955 7.82533 6.03113 8.54533 6.00534C8.80946 5.99651 9.07208 5.96105 9.32933 5.89948C10.0293 5.72983 10.6533 5.30639 11.9013 4.46085L13.744 3.20952C15.344 2.12376 16.1427 1.58088 17.06 1.45738C17.9773 1.33116 18.8893 1.6406 20.712 2.25948L22.2653 2.78607C23.5853 3.23395 24.2453 3.45788 24.6227 3.99126C25 4.52464 25 5.2331 25 6.64866V17.6813C25 19.6805 25 20.6807 24.476 21.2643C24.2903 21.4709 24.0647 21.6364 23.8133 21.7502C23.104 22.0718 22.172 21.7556 20.308 21.1232C18.8853 20.64 18.1747 20.3984 17.4547 20.4242C17.1905 20.4331 16.9279 20.4685 16.6707 20.5301C15.9707 20.6997 15.3467 21.1232 14.0987 21.9687L12.256 23.22C10.656 24.3058 9.85733 24.8487 8.94 24.9722C8.02267 25.0984 7.11067 24.789 5.288 24.1701L3.73467 23.6435C2.41467 23.1956 1.75467 22.9717 1.37733 22.4383C1 21.9049 1 21.1951 1 19.7809V8.74824V8.7496Z" stroke="#E1325C" stroke-width="1.5"/>
</svg>
