<svg width="26" height="26" viewBox="0 0 26 26" fill="none" xmlns="http://www.w3.org/2000/svg">
<path d="M1 10.5996H25H1ZM25.75 23.9996C25.75 24.9661 24.9665 25.7496 24 25.7496H2C1.0335 25.7496 0.25 24.9661 0.25 23.9996H1.75C1.75 24.1377 1.86193 24.2496 2 24.2496H24C24.1381 24.2496 24.25 24.1377 24.25 23.9996H25.75ZM2 25.7496C1.0335 25.7496 0.25 24.9661 0.25 23.9996V10.5996H1.75V23.9996C1.75 24.1377 1.86193 24.2496 2 24.2496V25.7496ZM25.75 10.5996V23.9996C25.75 24.9661 24.9665 25.7496 24 25.7496V24.2496C24.1381 24.2496 24.25 24.1377 24.25 23.9996V10.5996H25.75Z" fill="#E1325C"/>
<path d="M12.2331 1.2005C12.4063 1.07036 12.6171 1 12.8338 1H13.1662C13.3829 1 13.5937 1.07036 13.7669 1.2005L24.6007 9.33998C24.8521 9.52887 25 9.82502 25 10.1395V10.6H1V10.1395C1 9.82502 1.14792 9.52887 1.39933 9.33998L12.2331 1.2005Z" stroke="#E1325C" stroke-width="1.5"/>
</svg>
