<svg width="24" height="23" viewBox="0 0 24 23" fill="none" xmlns="http://www.w3.org/2000/svg">
<path d="M12.6885 1.19412L14.9094 6.424C15.2362 7.19357 15.9698 7.7096 16.8006 7.77484L22.5651 8.22748C23.2475 8.28106 23.4673 9.07694 22.994 9.47408L18.602 13.159C17.9612 13.6966 17.6759 14.5466 17.8742 15.3612L19.2161 20.8709C19.3565 21.4477 18.6987 21.9963 18.0988 21.6374L13.1635 18.6849C12.4485 18.2572 11.5515 18.2572 10.8365 18.6849L5.90125 21.6374C5.30126 21.9963 4.64346 21.4477 4.78393 20.8709L6.12576 15.3612C6.32415 14.5466 6.0388 13.6966 5.39802 13.159L1.00602 9.47408C0.532675 9.07694 0.752516 8.28106 1.43486 8.22748L7.19944 7.77484C8.03025 7.7096 8.76379 7.19357 9.09059 6.424L11.3115 1.19412C11.5629 0.601959 12.4371 0.60196 12.6885 1.19412Z" stroke="#E1325C" stroke-width="1.5"/>
</svg>
