<svg width="200" height="190" viewBox="0 0 102 90" fill="none" xmlns="http://www.w3.org/2000/svg">
<path d="M23.4345 69.4948C23.799 69.1758 24.267 69 24.7515 69H96.6771C98.5238 69 99.3839 71.2891 97.9941 72.5052L78.5655 89.5052C78.201 89.8242 77.733 90 77.2485 90H5.3229C3.47617 90 2.61608 87.7109 4.00589 86.4948L23.4345 69.4948Z" fill="#454545"/>
<path d="M23.4345 54.4948C23.799 54.1758 24.267 54 24.7515 54H96.6771C98.5238 54 99.3839 56.2891 97.9941 57.5052L78.5655 74.5052C78.201 74.8242 77.733 75 77.2485 75H5.3229C3.47617 75 2.61608 72.7109 4.00589 71.4948L23.4345 54.4948Z" fill="#E1325C"/>
<circle cx="51" cy="24" r="24" fill="#E1325C"/>
<circle cx="41.6654" cy="13.3333" r="5.33333" fill="white" fill-opacity="0.6"/>
<path d="M57.6681 35.3214C60.7879 36.7491 64.3126 35.8636 66.9649 32.8694" stroke="black" stroke-width="1.8" stroke-linecap="round"/>
<circle cx="63.668" cy="19.333" r="2" fill="black"/>
<circle cx="55.668" cy="26" r="2" fill="black"/>
</svg>
