<svg width="20" height="21" viewBox="0 0 20 21" fill="none" xmlns="http://www.w3.org/2000/svg">
<path fill-rule="evenodd" clip-rule="evenodd" d="M14.5 8C14.5 11.5899 11.5899 14.5 8 14.5C4.41015 14.5 1.5 11.5899 1.5 8C1.5 4.41015 4.41015 1.5 8 1.5C11.5899 1.5 14.5 4.41015 14.5 8ZM12.5324 14.5931C11.2441 15.4805 9.6827 16 8 16C3.58172 16 0 12.4183 0 8C0 3.58172 3.58172 0 8 0C12.4183 0 16 3.58172 16 8C16 10.1937 15.117 12.1812 13.6871 13.6264L19.5303 19.4697C19.8232 19.7626 19.8232 20.2374 19.5303 20.5303C19.2374 20.8232 18.7626 20.8232 18.4697 20.5303L12.5324 14.5931Z" fill="#757575"/>
</svg>
