<svg width="32" height="32" viewBox="0 0 32 32" fill="none" xmlns="http://www.w3.org/2000/svg">
<circle cx="16" cy="16" r="16" fill="#F9F9F9"/>
<path d="M7 12.8122C7 11.3118 7 10.5626 7.393 10.1249C7.53209 9.96924 7.70129 9.84448 7.89 9.7585C8.422 9.51828 9.121 9.75545 10.519 10.2298C11.586 10.5922 12.119 10.7733 12.659 10.754C12.8571 10.7474 13.0541 10.7208 13.247 10.6746C13.772 10.5474 14.24 10.2298 15.176 9.59564L16.558 8.65714C17.758 7.84282 18.357 7.43566 19.045 7.34303C19.733 7.24837 20.417 7.48045 21.784 7.94461L22.949 8.33955C23.939 8.67546 24.434 8.84341 24.717 9.24345C25 9.64348 25 10.1748 25 11.2365V19.511C25 21.0103 25 21.7605 24.607 22.1982C24.4677 22.3532 24.2985 22.4773 24.11 22.5626C23.578 22.8039 22.879 22.5667 21.481 22.0924C20.414 21.73 19.881 21.5488 19.341 21.5682C19.1429 21.5748 18.9459 21.6014 18.753 21.6476C18.228 21.7748 17.76 22.0924 16.824 22.7265L15.442 23.665C14.242 24.4793 13.643 24.8865 12.955 24.9791C12.267 25.0738 11.583 24.8417 10.216 24.3776L9.051 23.9826C8.061 23.6467 7.566 23.4788 7.283 23.0787C7 22.6787 7 22.1463 7 21.0857V12.8112V12.8122ZM13 10.7041V24.8132ZM19 7V21.2506Z" fill="#F9F9F9"/>
<path d="M13 10.7041V24.8132M19 7V21.2506M7 12.8122C7 11.3118 7 10.5626 7.393 10.1249C7.53209 9.96924 7.70129 9.84448 7.89 9.7585C8.422 9.51828 9.121 9.75545 10.519 10.2298C11.586 10.5922 12.119 10.7733 12.659 10.754C12.8571 10.7474 13.0541 10.7208 13.247 10.6746C13.772 10.5474 14.24 10.2298 15.176 9.59564L16.558 8.65714C17.758 7.84282 18.357 7.43566 19.045 7.34303C19.733 7.24837 20.417 7.48045 21.784 7.94461L22.949 8.33955C23.939 8.67546 24.434 8.84341 24.717 9.24345C25 9.64348 25 10.1748 25 11.2365V19.511C25 21.0103 25 21.7605 24.607 22.1982C24.4677 22.3532 24.2985 22.4773 24.11 22.5626C23.578 22.8039 22.879 22.5667 21.481 22.0924C20.414 21.73 19.881 21.5488 19.341 21.5682C19.1429 21.5748 18.9459 21.6014 18.753 21.6476C18.228 21.7748 17.76 22.0924 16.824 22.7265L15.442 23.665C14.242 24.4793 13.643 24.8865 12.955 24.9791C12.267 25.0738 11.583 24.8417 10.216 24.3776L9.051 23.9826C8.061 23.6467 7.566 23.4788 7.283 23.0787C7 22.6787 7 22.1463 7 21.0857V12.8112V12.8122Z" stroke="#E1325C" stroke-width="1.5"/>
</svg>
