<svg width="32" height="32" viewBox="0 0 32 32" fill="none" xmlns="http://www.w3.org/2000/svg">
<circle cx="16" cy="16" r="16" fill="#E1325C"/>
<path d="M13.3333 11.2926V23.834M18.6667 8V20.6672M8 13.1664C8 11.8327 8 11.1668 8.34933 10.7777C8.47297 10.6393 8.62337 10.5284 8.79111 10.452C9.264 10.2385 9.88533 10.4493 11.128 10.8709C12.0764 11.193 12.5502 11.3541 13.0302 11.3369C13.2063 11.331 13.3814 11.3074 13.5529 11.2663C14.0196 11.1532 14.4356 10.8709 15.2676 10.3072L16.496 9.47301C17.5627 8.74917 18.0951 8.38725 18.7067 8.30492C19.3182 8.22077 19.9262 8.42706 21.1413 8.83965L22.1769 9.19071C23.0569 9.4893 23.4969 9.63859 23.7484 9.99418C24 10.3498 24 10.8221 24 11.7658V19.1209C24 20.4536 24 21.1205 23.6507 21.5095C23.5269 21.6473 23.3765 21.7576 23.2089 21.8335C22.736 22.0479 22.1147 21.8371 20.872 21.4154C19.9236 21.0933 19.4498 20.9323 18.9698 20.9495C18.7937 20.9554 18.6186 20.979 18.4471 21.02C17.9804 21.1331 17.5644 21.4154 16.7324 21.9791L15.504 22.8134C14.4373 23.5372 13.9049 23.8991 13.2933 23.9815C12.6818 24.0656 12.0738 23.8593 10.8587 23.4467L9.82311 23.0957C8.94311 22.7971 8.50311 22.6478 8.25156 22.2922C8 21.9366 8 21.4634 8 20.5206V13.1655V13.1664Z" stroke="white" stroke-width="1.5"/>
</svg>
