<svg width="24" height="24" viewBox="0 0 24 24" fill="none" xmlns="http://www.w3.org/2000/svg">
<path d="M19.2 10L18.1 9.8C18 9.6 18 9.4 17.9 9.2L18.5 8.3L19 7.6L16.4 5L15.7 5.5L14.8 6.1C14.6 6 14.4 6 14.2 5.9L14 4.8L13.8 4H10.2L10 4.8L9.8 5.9C9.6 6 9.4 6 9.2 6.1L8.3 5.5L7.6 5.1L5.1 7.6L5.6 8.3L6.2 9.2C6 9.4 6 9.6 5.9 9.8L4.8 10L4 10.2V13.8L4.8 14L5.9 14.2C6 14.4 6 14.6 6.1 14.8L5.5 15.7L5 16.4L7.6 19L8.3 18.5L9.2 17.9C9.4 18 9.6 18 9.8 18.1L10 19.2L10.2 20H13.8L14 19.2L14.2 18.1C14.4 18 14.6 18 14.8 17.9L15.7 18.5L16.4 19L19 16.4L18.5 15.7L17.9 14.8C18 14.6 18.1 14.4 18.1 14.2L19.2 14L20 13.8V10.2L19.2 10ZM19 13L17.3 13.3C17.2 13.8 17 14.3 16.7 14.8L17.6 16.2L16.2 17.6L14.8 16.7C14.3 17 13.8 17.2 13.3 17.3L13 19H11L10.7 17.3C10.2 17.2 9.7 17 9.2 16.7L7.8 17.6L6.4 16.2L7.3 14.8C7 14.3 6.8 13.8 6.7 13.3L5 13V11L6.7 10.7C6.8 10.2 7 9.7 7.3 9.2L6.3 7.8L7.7 6.4L9.1 7.3C9.6 7 10.1 6.8 10.6 6.7L11 5H13L13.3 6.7C13.8 6.8 14.3 7 14.8 7.3L16.2 6.4L17.6 7.8L16.7 9.2C17 9.7 17.2 10.2 17.3 10.7L19 11V13Z" fill="#1C2E45" fill-opacity="0.6"/>
<path d="M12 8.5C10.1 8.5 8.5 10.1 8.5 12C8.5 13.9 10.1 15.5 12 15.5C13.9 15.5 15.5 13.9 15.5 12C15.5 10.1 13.9 8.5 12 8.5ZM12 14.5C10.6 14.5 9.5 13.4 9.5 12C9.5 10.6 10.6 9.5 12 9.5C13.4 9.5 14.5 10.6 14.5 12C14.5 13.4 13.4 14.5 12 14.5Z" fill="#1C2E45" fill-opacity="0.6"/>
</svg>
