<svg width="40" height="40" viewBox="0 0 40 40" fill="none" xmlns="http://www.w3.org/2000/svg">
<path d="M27.5391 10.2346C26.9486 10.2346 26.3823 10.4692 25.9647 10.8867C25.5472 11.3042 25.3126 11.8704 25.3126 12.4609C25.3126 13.0513 25.5472 13.6176 25.9647 14.0351C26.3823 14.4526 26.9486 14.6871 27.5391 14.6871C28.1296 14.6871 28.696 14.4526 29.1135 14.0351C29.5311 13.6176 29.7656 13.0513 29.7656 12.4609C29.7656 11.8704 29.5311 11.3042 29.1135 10.8867C28.696 10.4692 28.1296 10.2346 27.5391 10.2346ZM23.8282 12.4609C23.8281 11.5903 24.1342 10.7474 24.6928 10.0797C25.2515 9.41197 26.0272 8.96191 26.8842 8.80826C27.7412 8.6546 28.6249 8.80715 29.3808 9.23921C30.1367 9.67126 30.7166 10.3553 31.019 11.1717C31.3214 11.988 31.3271 12.8847 31.0351 13.7049C30.743 14.525 30.1719 15.2164 29.4216 15.658C28.6713 16.0996 27.7895 16.2634 26.9306 16.1206C26.0717 15.9779 25.2904 15.5377 24.7233 14.8771L14.7514 19.5077C14.9807 20.2341 14.9807 21.0135 14.7514 21.7399L24.7233 26.3705C25.3228 25.6734 26.1597 25.2237 27.0718 25.1084C27.984 24.9932 28.9065 25.2206 29.6605 25.7467C30.4146 26.2728 30.9464 27.06 31.153 27.9558C31.3596 28.8516 31.2263 29.7922 30.7789 30.5953C30.3314 31.3984 29.6017 32.0068 28.7312 32.3026C27.8606 32.5985 26.9113 32.5606 26.0671 32.1965C25.2228 31.8323 24.5439 31.1677 24.1618 30.3315C23.7797 29.4954 23.7217 28.5471 23.9989 27.6706L14.0271 23.04C13.5334 23.6152 12.8754 24.0255 12.1416 24.2156C11.4078 24.4057 10.6334 24.3666 9.92246 24.1034C9.21157 23.8402 8.59833 23.3657 8.16525 22.7436C7.73216 22.1215 7.5 21.3818 7.5 20.6238C7.5 19.8658 7.73216 19.1261 8.16525 18.504C8.59833 17.8819 9.21157 17.4074 9.92246 17.1442C10.6334 16.881 11.4078 16.8419 12.1416 17.032C12.8754 17.2221 13.5334 17.6324 14.0271 18.2076L23.9989 13.577C23.8854 13.2158 23.8279 12.8394 23.8282 12.4609ZM11.2113 18.3976C10.6208 18.3976 10.0544 18.6321 9.63688 19.0496C9.21932 19.4671 8.98474 20.0334 8.98474 20.6238C8.98474 21.2142 9.21932 21.7805 9.63688 22.198C10.0544 22.6155 10.6208 22.8501 11.2113 22.8501C11.8018 22.8501 12.3681 22.6155 12.7857 22.198C13.2032 21.7805 13.4378 21.2142 13.4378 20.6238C13.4378 20.0334 13.2032 19.4671 12.7857 19.0496C12.3681 18.6321 11.8018 18.3976 11.2113 18.3976ZM27.5391 26.5605C26.9486 26.5605 26.3823 26.795 25.9647 27.2125C25.5472 27.63 25.3126 28.1963 25.3126 28.7867C25.3126 29.3772 25.5472 29.9434 25.9647 30.3609C26.3823 30.7784 26.9486 31.013 27.5391 31.013C28.1296 31.013 28.696 30.7784 29.1135 30.3609C29.5311 29.9434 29.7656 29.3772 29.7656 28.7867C29.7656 28.1963 29.5311 27.63 29.1135 27.2125C28.696 26.795 28.1296 26.5605 27.5391 26.5605Z" fill="#969696"/>
<circle cx="20" cy="20" r="19.5" stroke="#969696"/>
</svg>
