<svg width="25" height="30" viewBox="0 0 25 30" fill="none" xmlns="http://www.w3.org/2000/svg">
<path d="M3.52433 12.8818C3.3908 12.8818 3.26274 12.9349 3.16832 13.0293C3.0739 13.1237 3.02085 13.2518 3.02085 13.3853V26.4757C3.02085 26.7536 3.24641 26.9791 3.52433 26.9791H20.6425C20.776 26.9791 20.9041 26.9261 20.9985 26.8317C21.0929 26.7373 21.146 26.6092 21.146 26.4757V13.3853C21.146 13.2518 21.0929 13.1237 20.9985 13.0293C20.9041 12.9349 20.776 12.8818 20.6425 12.8818H18.6286C18.228 12.8818 17.8438 12.7227 17.5606 12.4394C17.2773 12.1562 17.1182 11.772 17.1182 11.3714C17.1182 10.9708 17.2773 10.5866 17.5606 10.3034C17.8438 10.0201 18.228 9.86097 18.6286 9.86097H20.6425C22.5879 9.86097 24.1668 11.4399 24.1668 13.3853V26.4757C24.1668 27.4104 23.7955 28.3068 23.1346 28.9678C22.4736 29.6287 21.5772 30 20.6425 30H3.52433C2.58962 30 1.69319 29.6287 1.03225 28.9678C0.371312 28.3068 0 27.4104 0 26.4757V13.3853C0 11.4399 1.5789 9.86097 3.52433 9.86097H5.53823C5.93882 9.86097 6.32301 10.0201 6.60627 10.3034C6.88953 10.5866 7.04866 10.9708 7.04866 11.3714C7.04866 11.772 6.88953 12.1562 6.60627 12.4394C6.32301 12.7227 5.93882 12.8818 5.53823 12.8818H3.52433ZM11.727 0.147915C11.7737 0.101028 11.8293 0.0638283 11.8905 0.0384467C11.9516 0.013065 12.0172 0 12.0834 0C12.1496 0 12.2152 0.013065 12.2764 0.0384467C12.3376 0.0638283 12.3931 0.101028 12.4399 0.147915L18.2721 5.98018C18.3427 6.05059 18.3908 6.14039 18.4103 6.23817C18.4298 6.33595 18.4199 6.43732 18.3817 6.52943C18.3435 6.62154 18.2788 6.70024 18.1959 6.75555C18.1129 6.81086 18.0154 6.84029 17.9157 6.84012H13.5938V18.4201C13.5938 18.8206 13.4347 19.2048 13.1515 19.4881C12.8682 19.7714 12.484 19.9305 12.0834 19.9305C11.6828 19.9305 11.2986 19.7714 11.0154 19.4881C10.7321 19.2048 10.573 18.8206 10.573 18.4201V6.84012H6.25115C6.15145 6.84029 6.05393 6.81086 5.97097 6.75555C5.88801 6.70024 5.82333 6.62154 5.78515 6.52943C5.74697 6.43732 5.737 6.33595 5.7565 6.23817C5.776 6.14039 5.8241 6.05059 5.89469 5.98018L11.727 0.147915Z" fill="#E1325C"/>
</svg>
