<svg width="16" height="20" viewBox="0 0 16 20" fill="none" xmlns="http://www.w3.org/2000/svg">
<path d="M2.33333 8.58788C2.24493 8.58788 2.16014 8.62325 2.09763 8.68619C2.03512 8.74914 2 8.83451 2 8.92353V17.6504C2 17.8357 2.14933 17.9861 2.33333 17.9861H13.6667C13.7551 17.9861 13.8399 17.9507 13.9024 17.8878C13.9649 17.8248 14 17.7395 14 17.6504V8.92353C14 8.83451 13.9649 8.74914 13.9024 8.68619C13.8399 8.62325 13.7551 8.58788 13.6667 8.58788H12.3333C12.0681 8.58788 11.8138 8.48179 11.6262 8.29295C11.4387 8.10411 11.3333 7.84799 11.3333 7.58093C11.3333 7.31387 11.4387 7.05775 11.6262 6.86891C11.8138 6.68007 12.0681 6.57398 12.3333 6.57398H13.6667C14.9547 6.57398 16 7.62658 16 8.92353V17.6504C16 18.2736 15.7542 18.8712 15.3166 19.3118C14.879 19.7525 14.2855 20 13.6667 20H2.33333C1.71449 20 1.121 19.7525 0.683418 19.3118C0.245833 18.8712 0 18.2736 0 17.6504V8.92353C0 7.62658 1.04533 6.57398 2.33333 6.57398H3.66667C3.93188 6.57398 4.18624 6.68007 4.37377 6.86891C4.56131 7.05775 4.66667 7.31387 4.66667 7.58093C4.66667 7.84799 4.56131 8.10411 4.37377 8.29295C4.18624 8.48179 3.93188 8.58788 3.66667 8.58788H2.33333ZM7.764 0.0986099C7.79496 0.067352 7.83175 0.0425522 7.87224 0.0256311C7.91274 0.00870999 7.95616 0 8 0C8.04385 0 8.08726 0.00870999 8.12776 0.0256311C8.16825 0.0425522 8.20504 0.067352 8.236 0.0986099L12.0973 3.98679C12.1441 4.03373 12.1759 4.09359 12.1888 4.15878C12.2017 4.22397 12.1951 4.29155 12.1699 4.35296C12.1446 4.41436 12.1018 4.46683 12.0468 4.5037C11.9919 4.54057 11.9273 4.5602 11.8613 4.56008H9V12.28C9 12.5471 8.89464 12.8032 8.70711 12.9921C8.51957 13.1809 8.26522 13.287 8 13.287C7.73478 13.287 7.48043 13.1809 7.29289 12.9921C7.10536 12.8032 7 12.5471 7 12.28V4.56008H4.13867C4.07265 4.5602 4.00809 4.54057 3.95316 4.5037C3.89824 4.46683 3.85542 4.41436 3.83014 4.35296C3.80487 4.29155 3.79826 4.22397 3.81117 4.15878C3.82409 4.09359 3.85593 4.03373 3.90267 3.98679L7.764 0.0986099Z" fill="#E1325C"/>
</svg>
