<svg width="40" height="40" viewBox="0 0 40 40" fill="none" xmlns="http://www.w3.org/2000/svg">
<g id="Group 556">
<g id="Group 555">
<path id="Vector" fill-rule="evenodd" clip-rule="evenodd" d="M20.9089 13.5717C20.9089 13.3822 20.8337 13.2006 20.6997 13.0666C20.5658 12.9327 20.3841 12.8574 20.1947 12.8574H10.715C10.1467 12.8574 9.60172 13.0832 9.19987 13.485C8.79802 13.8869 8.57227 14.4319 8.57227 15.0002V29.2853C8.57227 29.8536 8.79802 30.3987 9.19987 30.8005C9.60172 31.2024 10.1467 31.4281 10.715 31.4281H25.0002C25.5685 31.4281 26.1135 31.2024 26.5154 30.8005C26.9172 30.3987 27.143 29.8536 27.143 29.2853V19.8057C27.143 19.6163 27.0677 19.4346 26.9338 19.3007C26.7998 19.1667 26.6181 19.0915 26.4287 19.0915C26.2393 19.0915 26.0576 19.1667 25.9236 19.3007C25.7897 19.4346 25.7144 19.6163 25.7144 19.8057V29.2853C25.7144 29.4748 25.6392 29.6565 25.5052 29.7904C25.3713 29.9244 25.1896 29.9996 25.0002 29.9996H10.715C10.5256 29.9996 10.3439 29.9244 10.21 29.7904C10.076 29.6565 10.0008 29.4748 10.0008 29.2853V15.0002C10.0008 14.8108 10.076 14.6291 10.21 14.4951C10.3439 14.3612 10.5256 14.2859 10.715 14.2859H20.1947C20.3841 14.2859 20.5658 14.2107 20.6997 14.0767C20.8337 13.9428 20.9089 13.7611 20.9089 13.5717Z" fill="#969696"/>
<path id="Vector_2" fill-rule="evenodd" clip-rule="evenodd" d="M31.4286 9.28652C31.4286 9.09709 31.3534 8.91542 31.2194 8.78147C31.0855 8.64752 30.9038 8.57227 30.7144 8.57227H23.5718C23.3824 8.57227 23.2007 8.64752 23.0667 8.78147C22.9328 8.91542 22.8575 9.09709 22.8575 9.28652C22.8575 9.47596 22.9328 9.65763 23.0667 9.79158C23.2007 9.92553 23.3824 10.0008 23.5718 10.0008H28.9902L17.352 21.6375C17.2856 21.7039 17.233 21.7827 17.197 21.8695C17.1611 21.9562 17.1426 22.0492 17.1426 22.1432C17.1426 22.2371 17.1611 22.3301 17.197 22.4168C17.233 22.5036 17.2856 22.5824 17.352 22.6489C17.4185 22.7153 17.4973 22.7679 17.5841 22.8039C17.6708 22.8398 17.7638 22.8583 17.8577 22.8583C17.9517 22.8583 18.0447 22.8398 18.1314 22.8039C18.2182 22.7679 18.297 22.7153 18.3634 22.6489L30.0001 11.0107V16.4291C30.0001 16.6185 30.0754 16.8002 30.2093 16.9342C30.3433 17.0681 30.5249 17.1434 30.7144 17.1434C30.9038 17.1434 31.0855 17.0681 31.2194 16.9342C31.3534 16.8002 31.4286 16.6185 31.4286 16.4291V9.28652Z" fill="#969696"/>
</g>
<circle id="Ellipse 141" cx="20" cy="20" r="19.5" stroke="#969696"/>
</g>
</svg>
