<svg width="11" height="16" viewBox="0 0 11 16" fill="none" xmlns="http://www.w3.org/2000/svg">
<path d="M0.934669 15.8087C0.600477 16.2375 -0.079071 15.8827 0.081776 15.3634L2.15599 8.66646C2.24632 8.37482 2.57884 8.23633 2.84949 8.37764L5.08486 9.54477C5.3555 9.68608 5.43193 10.0381 5.24425 10.2789L0.934669 15.8087Z" fill="#454545"/>
<path d="M10.433 5.21651C10.433 8.09752 8.09752 10.433 5.21651 10.433C2.33551 10.433 0 8.09752 0 5.21651C0 2.33551 2.33551 0 5.21651 0C8.09752 0 10.433 2.33551 10.433 5.21651Z" fill="#E1325C"/>
<path d="M4.34724 2.89804C4.34724 3.53826 3.82823 4.05726 3.18801 4.05726C2.54779 4.05726 2.02879 3.53826 2.02879 2.89804C2.02879 2.25781 2.54779 1.73881 3.18801 1.73881C3.82823 1.73881 4.34724 2.25781 4.34724 2.89804Z" fill="white" fill-opacity="0.6"/>
<path fill-rule="evenodd" clip-rule="evenodd" d="M8.88071 6.92478C9.00202 7.03224 9.01325 7.21768 8.90579 7.33899C8.2591 8.06905 7.3587 8.31733 6.54333 7.94421C6.39597 7.87677 6.33117 7.70265 6.39861 7.55529C6.46604 7.40793 6.64016 7.34314 6.78752 7.41057C7.32839 7.65808 7.96021 7.52141 8.4665 6.94986C8.57395 6.82855 8.7594 6.81732 8.88071 6.92478Z" fill="black"/>
<path d="M8.40446 4.20223C8.40446 4.44231 8.20983 4.63694 7.96975 4.63694C7.72966 4.63694 7.53504 4.44231 7.53504 4.20223C7.53504 3.96214 7.72966 3.76752 7.96975 3.76752C8.20983 3.76752 8.40446 3.96214 8.40446 4.20223Z" fill="black"/>
<path d="M6.6654 5.65122C6.6654 5.89131 6.47078 6.08593 6.23069 6.08593C5.99061 6.08593 5.79599 5.89131 5.79599 5.65122C5.79599 5.41114 5.99061 5.21651 6.23069 5.21651C6.47078 5.21651 6.6654 5.41114 6.6654 5.65122Z" fill="black"/>
</svg>
