<svg width="18" height="16" viewBox="0 0 18 16" fill="none" xmlns="http://www.w3.org/2000/svg">
<path d="M7.55281 0.640689C7.91557 -0.213563 9.1511 -0.213563 9.51386 0.640689L11.0932 4.35972C11.2461 4.71985 11.5919 4.96591 11.9888 4.99708L16.0881 5.31896C17.0297 5.39289 17.4115 6.54381 16.6941 7.1457L13.5709 9.76606C13.2684 10.0198 13.1364 10.4179 13.2288 10.7973L14.1829 14.7153C14.4021 15.6152 13.4026 16.3265 12.5964 15.8443L9.08688 13.7447C8.74704 13.5414 8.31963 13.5414 7.97978 13.7447L4.47025 15.8443C3.66412 16.3265 2.66455 15.6152 2.88372 14.7153L3.83791 10.7973C3.93031 10.4179 3.79823 10.0198 3.4958 9.76606L0.372598 7.1457C-0.344795 6.54381 0.0370069 5.39289 0.978597 5.31896L5.07785 4.99708C5.4748 4.96591 5.82059 4.71985 5.97352 4.35972L7.55281 0.640689Z" fill="#F9CB55"/>
</svg>
