<svg width="24" height="24" viewBox="0 0 24 24" fill="none" xmlns="http://www.w3.org/2000/svg">
<path d="M17.5594 22.75L17.5619 22.75C17.8215 22.7498 18.0786 22.6903 18.3127 22.5761C18.5459 22.4623 18.7496 22.298 18.9111 22.0969C19.0726 21.896 19.1885 21.6628 19.2529 21.4144C19.3172 21.1659 19.329 20.9064 19.2876 20.6533L19.2875 20.6532L18.3748 15.0763L22.2335 11.1325L22.2339 11.1321C22.4649 10.8957 22.6247 10.6 22.6999 10.2803C22.775 9.9606 22.7635 9.6256 22.6662 9.3118C22.5689 8.99786 22.3885 8.71402 22.1406 8.49475C21.8925 8.27519 21.5868 8.12952 21.257 8.07899L21.2563 8.0789L15.9527 7.27097L13.575 2.21837L13.5636 2.19419L13.5506 2.17087C13.3964 1.89607 13.1741 1.66389 12.9021 1.50075C12.6298 1.33743 12.3187 1.25 11.9999 1.25C11.6811 1.25 11.37 1.33743 11.0977 1.50075C10.8257 1.66389 10.6034 1.89607 10.4492 2.17087L10.4362 2.19414L10.4248 2.21827L8.04615 7.27095L2.74245 8.0789L2.7418 8.07899C2.41202 8.12952 2.10633 8.27519 1.85816 8.49475C1.61032 8.71402 1.42985 8.99786 1.33256 9.31181C1.23531 9.6256 1.22381 9.9606 1.29893 10.2803C1.37408 10.6 1.53394 10.8957 1.76489 11.1321L1.76531 11.1325L5.62402 15.0764L4.71222 20.6533L4.71202 20.6545C4.65965 20.9783 4.69435 21.3115 4.81345 21.6176C4.93263 21.9239 5.13295 22.1942 5.39636 22.3947C5.66013 22.5956 5.97592 22.7178 6.30848 22.7432C6.64114 22.7686 6.9722 22.6957 7.2635 22.5357L7.26449 22.5352L11.9994 19.9248L16.7327 22.5343C16.7329 22.5344 16.7332 22.5346 16.7334 22.5347C16.986 22.6746 17.2696 22.7492 17.5594 22.75Z" stroke="#969696" stroke-width="1.5"/>
</svg>
