<svg width="20" height="20" viewBox="0 0 20 20" fill="none" xmlns="http://www.w3.org/2000/svg">
<path d="M19.4645 8.25702C19.4209 8.41885 19.3393 8.56422 19.2295 8.68088L19.1647 8.73958L15.1406 12.3845L14.9251 12.5796L14.9881 12.8635L16.1936 18.29L16.1939 18.2913C16.2369 18.4827 16.2245 18.683 16.1587 18.8664C16.0929 19.0497 15.9776 19.206 15.8299 19.3175C15.6824 19.4288 15.5087 19.4911 15.3307 19.4991C15.1529 19.5071 14.9755 19.4608 14.8203 19.3638C14.8201 19.3637 14.8199 19.3636 14.8197 19.3635L10.2606 16.4935L9.99391 16.3256L9.72742 16.4938L5.17854 19.3635C5.1783 19.3636 5.17805 19.3638 5.17781 19.3639C5.02262 19.4608 4.84526 19.5071 4.66752 19.4991C4.48946 19.4911 4.31578 19.4288 4.16831 19.3175C4.02061 19.206 3.90527 19.0497 3.83952 18.8664C3.77372 18.683 3.76133 18.4827 3.80436 18.2913L3.80465 18.29L5.00831 12.869L5.07128 12.5854L4.8561 12.3902L0.831124 8.7398L0.831131 8.73979L0.828699 8.73761C0.689449 8.61297 0.586477 8.44626 0.535506 8.25702C0.48451 8.06769 0.488548 7.86665 0.546966 7.67991C0.60535 7.49327 0.714669 7.33148 0.858387 7.21322C1.00188 7.09515 1.17355 7.02533 1.35151 7.00982L1.35284 7.0097L6.6582 6.53279L6.96257 6.50543L7.07704 6.22207L9.14797 1.09554L9.14828 1.09477C9.22067 0.914689 9.3416 0.763829 9.49303 0.659107C9.64423 0.554552 9.81981 0.5 9.99777 0.5C10.1757 0.5 10.3513 0.554552 10.5025 0.659107C10.6539 0.763828 10.7749 0.914687 10.8473 1.09477L10.8478 1.09602L12.9249 6.22256L13.0396 6.50545L13.3436 6.53279L18.6471 7.0097L18.6485 7.00981C18.8264 7.02533 18.9981 7.09515 19.1416 7.21322C19.2853 7.33148 19.3946 7.49327 19.453 7.67991C19.5114 7.86665 19.5155 8.0677 19.4645 8.25702Z" stroke="#46474B"/>
</svg>
