<svg width="40" height="40" viewBox="0 0 40 40" fill="none" xmlns="http://www.w3.org/2000/svg">
<path d="M16 12.9388V31.751M24 8V27.0008M8 15.7496C8 13.7491 8 12.7502 8.524 12.1666C8.70945 11.959 8.93506 11.7926 9.18667 11.678C9.896 11.3577 10.828 11.6739 12.692 12.3064C14.1147 12.7895 14.8253 13.0311 15.5453 13.0053C15.8095 12.9965 16.0721 12.961 16.3293 12.8995C17.0293 12.7298 17.6533 12.3064 18.9013 11.4609L20.744 10.2095C22.344 9.12376 23.1427 8.58088 24.06 8.45738C24.9773 8.33116 25.8893 8.6406 27.712 9.25948L29.2653 9.78607C30.5853 10.2339 31.2453 10.4579 31.6227 10.9913C32 11.5246 32 12.2331 32 13.6487V24.6813C32 26.6805 32 27.6807 31.476 28.2643C31.2903 28.4709 31.0647 28.6364 30.8133 28.7502C30.104 29.0718 29.172 28.7556 27.308 28.1232C25.8853 27.64 25.1747 27.3984 24.4547 27.4242C24.1905 27.4331 23.9279 27.4685 23.6707 27.5301C22.9707 27.6997 22.3467 28.1232 21.0987 28.9687L19.256 30.22C17.656 31.3058 16.8573 31.8487 15.94 31.9722C15.0227 32.0984 14.1107 31.789 12.288 31.1701L10.7347 30.6435C9.41467 30.1956 8.75467 29.9717 8.37733 29.4383C8 28.9049 8 28.1951 8 26.7809V15.7482V15.7496Z" stroke="#969696" stroke-width="1.5"/>
<circle cx="20" cy="20" r="19.25" stroke="#969696" stroke-width="1.5"/>
</svg>
