<svg width="40" height="40" viewBox="0 0 40 40" fill="none" xmlns="http://www.w3.org/2000/svg">
<circle cx="20" cy="20" r="20" fill="#E1325C"/>
<path d="M16.6667 14.1157V29.7925M23.3333 10V25.834M10 16.458C10 14.7909 10 13.9585 10.4367 13.4722C10.5912 13.2992 10.7792 13.1605 10.9889 13.065C11.58 12.7981 12.3567 13.0616 13.91 13.5887C15.0956 13.9913 15.6878 14.1926 16.2878 14.1711C16.5079 14.1638 16.7267 14.1342 16.9411 14.0829C17.5244 13.9415 18.0444 13.5887 19.0844 12.884L20.62 11.8413C21.9533 10.9365 22.6189 10.4841 23.3833 10.3811C24.1478 10.276 24.9078 10.5338 26.4267 11.0496L27.7211 11.4884C28.8211 11.8616 29.3711 12.0482 29.6856 12.4927C30 12.9372 30 13.5276 30 14.7072V23.9011C30 25.5671 30 26.4006 29.5633 26.8869C29.4086 27.0591 29.2206 27.197 29.0111 27.2918C28.42 27.5599 27.6433 27.2963 26.09 26.7693C24.9044 26.3667 24.3122 26.1654 23.7122 26.1868C23.4921 26.1942 23.2733 26.2238 23.0589 26.2751C22.4756 26.4164 21.9556 26.7693 20.9156 27.4739L19.38 28.5167C18.0467 29.4215 17.3811 29.8739 16.6167 29.9768C15.8522 30.082 15.0922 29.8241 13.5733 29.3084L12.2789 28.8696C11.1789 28.4963 10.6289 28.3097 10.3144 27.8652C10 27.4208 10 26.8292 10 25.6507V16.4569V16.458Z" stroke="white" stroke-width="1.5"/>
</svg>
