<svg width="40" height="40" viewBox="0 0 40 40" fill="none" xmlns="http://www.w3.org/2000/svg">
<circle cx="20" cy="20" r="19.25" stroke="#969696" stroke-width="1.5"/>
<path fill-rule="evenodd" clip-rule="evenodd" d="M15 15.75C15 15.3358 14.6642 15 14.25 15H12C10.8954 15 10 15.8954 10 17V29C10 30.1046 10.8954 31 12 31H28C29.1046 31 30 30.1046 30 29V17C30 15.8954 29.1046 15 28 15H25.75C25.3358 15 25 15.3358 25 15.75V15.75C25 16.1642 25.3358 16.5 25.75 16.5H28C28.2761 16.5 28.5 16.7239 28.5 17V29C28.5 29.2761 28.2761 29.5 28 29.5H12C11.7239 29.5 11.5 29.2761 11.5 29V17C11.5 16.7239 11.7239 16.5 12 16.5H14.25C14.6642 16.5 15 16.1642 15 15.75V15.75Z" fill="#969696"/>
<path d="M19.25 23C19.25 23.4142 19.5858 23.75 20 23.75C20.4142 23.75 20.75 23.4142 20.75 23L19.25 23ZM20 6L15.6699 13.5L24.3301 13.5L20 6ZM20.75 23L20.75 12.75L19.25 12.75L19.25 23L20.75 23Z" fill="#969696"/>
</svg>
