<svg width="40" height="40" viewBox="0 0 40 40" fill="none" xmlns="http://www.w3.org/2000/svg">
<circle cx="20" cy="20" r="19.25" stroke="#969696" stroke-width="1.5"/>
<path fill-rule="evenodd" clip-rule="evenodd" d="M15 16.25C15 15.8358 14.6642 15.5 14.25 15.5H12C10.8954 15.5 10 16.3954 10 17.5V29C10 30.1046 10.8954 31 12 31H28C29.1046 31 30 30.1046 30 29V17.5C30 16.3954 29.1046 15.5 28 15.5H25.75C25.3358 15.5 25 15.8358 25 16.25V16.25C25 16.6642 25.3358 17 25.75 17H28C28.2761 17 28.5 17.2239 28.5 17.5V29C28.5 29.2761 28.2761 29.5 28 29.5H12C11.7239 29.5 11.5 29.2761 11.5 29V17.5C11.5 17.2239 11.7239 17 12 17H14.25C14.6642 17 15 16.6642 15 16.25V16.25Z" fill="#969696"/>
<path d="M20 24L20 7" stroke="#969696" stroke-width="1.5" stroke-linecap="round"/>
<path d="M19.567 5.75C19.7594 5.41667 20.2406 5.41667 20.433 5.75L24.7631 13.25C24.9556 13.5833 24.715 14 24.3301 14H15.6699C15.285 14 15.0444 13.5833 15.2369 13.25L19.567 5.75Z" fill="#969696"/>
</svg>
