<svg width="28" height="28" viewBox="0 0 28 28" fill="none" xmlns="http://www.w3.org/2000/svg">
<path fill-rule="evenodd" clip-rule="evenodd" d="M14.625 4.32129H4C1.79086 4.32129 0 6.11215 0 8.32129V23.7218C0 25.931 1.79086 27.7218 4 27.7218H19.4006C21.6097 27.7218 23.4006 25.931 23.4006 23.7218V13.096H21.9006V23.7218C21.9006 25.1026 20.7813 26.2218 19.4006 26.2218H4C2.61929 26.2218 1.5 25.1026 1.5 23.7218V8.32129C1.5 6.94058 2.61929 5.82129 4 5.82129H14.625V4.32129Z" fill="#E1325C"/>
<path fill-rule="evenodd" clip-rule="evenodd" d="M8.96093 15.4785C8.56677 15.4904 8.18623 15.733 8.04192 16.1547L6.83291 19.6879C6.56846 20.4607 7.29193 21.2074 8.07274 20.9675L11.7004 19.853C12.1066 19.7282 12.3556 19.3848 12.4 19.0136C13.0451 19.1567 13.7474 18.9773 14.2493 18.4754L27.018 5.70675C28.3235 4.40125 28.3234 2.28462 27.018 0.979124C25.7125 -0.326374 23.5958 -0.326376 22.2903 0.979122L9.52166 13.7478C9.05036 14.2191 8.86346 14.8671 8.96093 15.4785ZM9.7434 15.8196L12.1138 18.19C12.1351 18.2113 12.1553 18.2333 12.1742 18.2558C12.4765 18.0615 12.8337 17.7697 13.1886 17.4148L25.9573 4.64609C26.677 3.92638 26.677 2.7595 25.9573 2.03978C25.2376 1.32007 24.0707 1.32007 23.351 2.03978L10.5823 14.8084C10.2286 15.1621 9.93772 15.518 9.7434 15.8196ZM8.09528 19.7052L9.07344 16.8467L11.0303 18.8035L8.09528 19.7052Z" fill="#E1325C"/>
</svg>
