<svg width="40" height="38" viewBox="0 0 40 38" fill="none" xmlns="http://www.w3.org/2000/svg">
<path d="M30.2983 7.00189L39.3663 10.2059C39.746 10.34 40 10.6994 40 11.1025V37.0483C40 37.7113 39.3392 38.1708 38.7185 37.9393L29.6506 34.5573C29.2788 34.4187 29.0323 34.0634 29.0323 33.6663V7.89857C29.0323 7.2425 29.6803 6.78354 30.2983 7.00189Z" fill="#454545"/>
<path d="M1.26598 6.7866L10.334 9.99058C10.7137 10.1248 10.9677 10.4841 10.9677 10.8873V36.833C10.9677 37.496 10.3069 37.9555 9.68624 37.724L0.618248 34.3421C0.24652 34.2034 0 33.8481 0 33.451V7.68328C0 7.02721 0.647988 6.56825 1.26598 6.7866Z" fill="#454545"/>
<path d="M24.3254 6.7866L15.2575 9.99058C14.8777 10.1248 14.6237 10.4841 14.6237 10.8873V36.833C14.6237 37.496 15.2845 37.9555 15.9052 37.724L24.9732 34.3421C25.3449 34.2034 25.5914 33.8481 25.5914 33.451V7.68328C25.5914 7.02721 24.9434 6.56825 24.3254 6.7866Z" fill="#454545"/>
<path d="M18.2794 30.7379C17.6303 31.5717 16.3105 30.8818 16.6229 29.872L20.6515 16.8508C20.827 16.2837 21.4728 16.0145 21.9985 16.2892L26.3401 18.5586C26.8658 18.8333 27.0142 19.5178 26.6497 19.986L18.2794 30.7379Z" fill="#BCBCBC"/>
<path d="M36.7275 10.1428C36.7275 15.7446 32.1914 20.2857 26.5958 20.2857C21.0002 20.2857 16.4641 15.7446 16.4641 10.1428C16.4641 4.5411 21.0002 0 26.5958 0C32.1914 0 36.7275 4.5411 36.7275 10.1428Z" fill="#E1325C"/>
<path d="M24.9072 5.63491C24.9072 6.87973 23.8992 7.88887 22.6557 7.88887C21.4122 7.88887 20.4042 6.87973 20.4042 5.63491C20.4042 4.39008 21.4122 3.38094 22.6557 3.38094C23.8992 3.38094 24.9072 4.39008 24.9072 5.63491Z" fill="white" fill-opacity="0.6"/>
<path d="M32.7874 8.17061C32.7874 8.63743 32.4094 9.01585 31.9431 9.01585C31.4768 9.01585 31.0988 8.63743 31.0988 8.17061C31.0988 7.7038 31.4768 7.32538 31.9431 7.32538C32.4094 7.32538 32.7874 7.7038 32.7874 8.17061Z" fill="black"/>
<path d="M29.4102 10.9881C29.4102 11.4549 29.0322 11.8333 28.5659 11.8333C28.0996 11.8333 27.7216 11.4549 27.7216 10.9881C27.7216 10.5213 28.0996 10.1428 28.5659 10.1428C29.0322 10.1428 29.4102 10.5213 29.4102 10.9881Z" fill="black"/>
<path fill-rule="evenodd" clip-rule="evenodd" d="M33.7126 13.4643C33.9482 13.6733 33.97 14.0338 33.7613 14.2697C32.5052 15.6892 30.7564 16.172 29.1728 15.4465C28.8866 15.3154 28.7607 14.9768 28.8917 14.6903C29.0227 14.4037 29.3609 14.2778 29.6471 14.4089C30.6976 14.8901 31.9247 14.6244 32.9081 13.5131C33.1168 13.2772 33.477 13.2554 33.7126 13.4643Z" fill="black"/>
</svg>
